<?xml version="1.0" encoding="UTF-8" standalone="no"?>
<!DOCTYPE svg PUBLIC "-//W3C//DTD SVG 1.1//EN" "http://www.w3.org/Graphics/SVG/1.1/DTD/svg11.dtd">
<svg width="100%" height="100%" viewBox="0 0 800 200" version="1.1" xmlns="http://www.w3.org/2000/svg" xmlns:xlink="http://www.w3.org/1999/xlink" xml:space="preserve" xmlns:serif="http://www.serif.com/" style="fill-rule:evenodd;clip-rule:evenodd;stroke-linejoin:round;stroke-miterlimit:2;">
    <g transform="matrix(0.894257,0,0,0.821116,383,-2.44249e-14)">
        <g opacity="0.39">
            <g transform="matrix(1,0,0,1,-250.858,-175.882)">
                <path d="M482.965,224.978C484.919,221.044 488.042,217.777 489.953,213.821C491.864,209.865 492.235,204.57 489.052,201.543C486.349,198.972 482.116,198.936 478.884,197.073C470.65,192.329 470.659,177.26 461.246,175.958C456.668,175.324 452.526,178.757 449.76,182.459C446.993,186.16 444.788,190.479 440.951,193.054C436.607,195.969 430.992,196.096 426.168,198.121C416.921,202.003 412.072,211.985 408.018,221.159C405.407,227.069 402.735,233.443 403.947,239.79C401.313,241.429 402.487,245.837 405.116,247.483C407.745,249.129 411.047,249.093 414.066,249.806C420.411,251.305 425.606,256.356 428.069,262.392C429.989,267.097 430.381,272.263 430.752,277.331C431.394,286.125 432.037,294.918 432.68,303.712C432.966,307.625 433.341,311.783 435.722,314.9C438.103,318.017 443.26,319.323 445.937,316.456C448.496,313.716 447.343,309.377 447.292,305.629C447.24,301.88 450.628,297.212 453.824,299.173L454.95,296.617C469.83,291.289 480.263,277.686 481.553,261.935C482.369,249.491 477.417,236.147 482.965,224.978Z" style="fill:rgb(230,230,230);fill-rule:nonzero;"/>
            </g>
            <g transform="matrix(1,0,0,1,-250.858,-175.882)">
                <path d="M490.422,303.89C491.44,302.931 492.018,301.592 492.018,300.194C492.018,297.622 490.064,295.436 487.509,295.147L487.521,295.57C486.147,296.371 484.581,296.783 482.99,296.76C481.406,296.735 479.828,296.985 478.329,297.499C476.806,298.052 475.776,299.494 475.744,301.114C475.92,302.346 476.689,303.418 477.801,303.979C478.902,304.521 480.084,304.88 481.3,305.042C484.434,305.631 488.102,306.077 490.422,303.89Z" style="fill:rgb(230,230,230);fill-rule:nonzero;"/>
            </g>
            <g transform="matrix(1,0,0,1,-250.858,-175.882)">
                <path d="M551.539,225.186C552.852,224.294 553.966,223.14 554.813,221.797C555.651,220.409 555.549,218.639 554.558,217.356C553.57,216.499 552.297,216.039 550.99,216.067C547.438,215.802 543.867,216.223 540.475,217.307C543.958,220.394 547.442,223.48 550.926,226.567L551.539,225.186Z" style="fill:rgb(230,230,230);fill-rule:nonzero;"/>
            </g>
            <g transform="matrix(1,0,0,1,-250.858,-175.882)">
                <path d="M534.116,233.214C535.524,234.768 535.076,237.179 534.677,239.238C534.278,241.298 534.228,243.871 535.999,244.994C537.534,245.968 539.688,245.173 540.811,243.743C541.815,242.219 542.426,240.47 542.591,238.652C543.143,236.009 543.392,233.313 543.334,230.614C543.268,227.896 542.308,225.274 540.605,223.154C538.132,220.335 534.114,219.396 530.648,220.828L532.266,220.748C531.09,222.259 530.197,223.971 529.633,225.801C529.083,227.671 529.594,229.699 530.963,231.086C531.924,231.921 533.262,232.271 534.116,233.214Z" style="fill:rgb(230,230,230);fill-rule:nonzero;"/>
            </g>
            <g transform="matrix(1,0,0,1,-250.858,-175.882)">
                <path d="M613.536,207.146L613.823,206.26C611.352,207.69 610.208,210.68 611.094,213.394C612.977,211.909 613.913,209.514 613.536,207.146Z" style="fill:rgb(230,230,230);fill-rule:nonzero;"/>
            </g>
            <g transform="matrix(1,0,0,1,-250.858,-175.882)">
                <path d="M597.891,219.832C600.996,218.073 603.089,214.941 603.525,211.399C603.691,210.312 603.565,209.201 603.161,208.178C602.739,207.149 601.827,206.396 600.737,206.177L600.081,207.209C599.141,206.4 597.562,207.232 597.167,208.407C596.911,209.628 597.017,210.896 597.471,212.058C597.925,213.225 597.904,214.525 597.414,215.678C596.886,216.357 596.291,216.981 595.64,217.542C594.986,218.137 594.843,219.121 595.301,219.878C595.918,220.582 597.072,220.286 597.891,219.832Z" style="fill:rgb(230,230,230);fill-rule:nonzero;"/>
            </g>
            <g transform="matrix(1,0,0,1,-250.858,-175.882)">
                <path d="M591.221,214.068C591.782,213.059 592.046,211.911 591.984,210.758L590.55,210.308C589.634,210.68 588.822,211.268 588.182,212.021C587.834,212.371 587.638,212.845 587.638,213.339C587.638,214.362 588.48,215.205 589.503,215.205C590.25,215.205 590.928,214.756 591.221,214.068Z" style="fill:rgb(230,230,230);fill-rule:nonzero;"/>
            </g>
            <g transform="matrix(1,0,0,1,-250.858,-175.882)">
                <path d="M661.286,206.814C661.416,206.923 661.545,207.034 661.675,207.144C661.789,207.12 661.897,207.077 662.014,207.062L661.286,206.814Z" style="fill:rgb(230,230,230);fill-rule:nonzero;"/>
            </g>
            <g transform="matrix(1,0,0,1,-250.858,-175.882)">
                <path d="M658.989,219.395C660.305,218.33 661.621,217.265 662.937,216.201C663.637,215.706 664.233,215.079 664.692,214.356C665.329,212.967 665.209,211.343 664.374,210.062C663.645,208.944 662.733,207.957 661.675,207.144C659.281,207.71 657.67,210.003 657.95,212.448C658.188,213.957 659.136,215.571 658.362,216.889C658.06,217.402 657.542,217.752 657.195,218.235C656.847,218.718 656.735,219.487 657.212,219.843C657.742,220.237 658.475,219.81 658.989,219.395Z" style="fill:rgb(230,230,230);fill-rule:nonzero;"/>
            </g>
            <g transform="matrix(1,0,0,1,-250.858,-175.882)">
                <path d="M661.868,225.912C662.857,225.965 663.823,225.585 664.511,224.872C666.27,223.43 667.809,221.739 669.079,219.852C666.118,220.79 663.157,221.728 660.195,222.666L661.118,223.746C660.298,224.281 660.906,225.728 661.868,225.912Z" style="fill:rgb(230,230,230);fill-rule:nonzero;"/>
            </g>
            <g transform="matrix(1,0,0,1,-250.858,-175.882)">
                <path d="M670.168,232.007C670.538,232.954 671.5,233.542 672.511,233.438C673.505,233.306 674.391,232.739 674.928,231.892C675.433,231.146 675.704,230.266 675.704,229.365C675.704,226.966 673.786,224.966 671.388,224.867L672.206,226.116C672.414,228.248 669.516,229.967 670.168,232.007Z" style="fill:rgb(230,230,230);fill-rule:nonzero;"/>
            </g>
            <g transform="matrix(1,0,0,1,-250.858,-175.882)">
                <path d="M605.183,278.734L603.476,277.175C603.93,277.808 604.511,278.339 605.183,278.734Z" style="fill:rgb(230,230,230);fill-rule:nonzero;"/>
            </g>
            <g transform="matrix(1,0,0,1,-250.858,-175.882)">
                <path d="M592.147,269.557C593.198,274.437 598.453,278.412 603.224,276.946L603.476,277.175C601.957,275.097 601.7,272.02 602.054,269.345C603.391,260.039 609.398,252.036 617.96,248.153C619.115,247.792 620.148,247.119 620.945,246.208C621.625,245.214 621.371,243.508 620.2,243.228C619.563,243.155 618.921,243.304 618.381,243.649L609.515,248.012C605.037,250.216 600.469,252.484 596.952,256.025C593.434,259.566 591.097,264.678 592.147,269.557Z" style="fill:rgb(230,230,230);fill-rule:nonzero;"/>
            </g>
            <g transform="matrix(1,0,0,1,-250.858,-175.882)">
                <path d="M449.026,437.34C440.765,431.426 431.717,426.698 422.145,423.292C416.262,421.201 409.94,419.605 403.81,420.793C396.998,422.202 391.254,426.787 388.37,433.118C385.595,439.488 385.87,446.787 389.117,452.93C391.944,458.227 396.839,462.446 398.476,468.222C399.579,472.117 399.056,476.263 398.525,480.276C397.44,488.477 396.355,496.677 395.27,504.877C394.282,512.344 393.319,520.113 395.683,527.264C398.046,534.414 404.792,540.718 412.285,539.958L413.769,539.846C408.813,536.476 407.424,529.498 408.9,523.689C410.375,517.88 414.121,512.953 417.778,508.205C428.631,494.112 439.484,480.02 450.336,465.928C454.727,460.226 459.371,453.179 457.03,446.374C455.699,442.505 452.352,439.722 449.026,437.34Z" style="fill:rgb(230,230,230);fill-rule:nonzero;"/>
            </g>
            <g transform="matrix(1,0,0,1,-250.858,-175.882)">
                <path d="M375.065,401.715C373.966,401.342 372.805,402.17 372.159,403.134C371.636,404.169 371.023,405.156 370.325,406.082C368.634,407.824 365.553,407.478 363.73,405.875C361.906,404.272 361.116,401.792 360.763,399.39C360.338,396.508 360.521,393.293 362.423,391.086C364.382,388.815 367.6,388.205 370.562,387.734C373.621,387.246 377.048,386.84 379.555,388.66C381.133,389.807 382.053,391.658 383.516,392.95C384.978,394.241 387.58,394.731 388.68,393.12C389.264,391.961 389.245,390.588 388.627,389.447C388.009,388.326 387.636,387.086 387.536,385.81C387.609,384.039 389.032,382.631 390.487,381.619C391.942,380.607 393.585,379.733 394.54,378.24C395.714,376.402 395.59,374.036 396.318,371.981C398.081,367.007 404.374,364.794 406.206,359.845C406.648,358.804 406.698,357.638 406.346,356.563C405.579,354.592 403.505,354.979 403.378,352.57C403.256,350.265 405.179,348.005 407.132,347.043C409.825,345.716 412.965,345.823 415.966,345.743C418.968,345.662 422.201,345.263 424.404,343.223C425.719,341.866 426.456,340.049 426.456,338.159C426.456,335.908 425.411,333.781 423.63,332.405C421.989,331.271 419.914,330.877 418.317,329.682C416.328,328.193 415.387,325.714 413.837,323.772C412.549,322.293 411.074,320.988 409.45,319.887C408.121,318.901 406.791,317.915 405.462,316.928C403.059,315.145 400.559,313.317 397.634,312.681C394.71,312.046 391.228,312.945 389.763,315.555C389.186,316.718 388.87,317.993 388.839,319.291C388.706,322.348 388.833,325.41 389.22,328.445C389.462,330.888 389.703,333.331 389.944,335.774C390.161,337.964 389.928,340.851 387.802,341.42C383.086,342.681 384.678,335.707 383.632,333.571C382.031,330.301 374.675,328.731 371.53,327.368C369.566,326.517 367.493,325.577 366.307,323.795C364.831,321.577 365.134,318.559 366.292,316.16C367.449,313.76 369.335,311.807 371.048,309.767C372.795,307.687 374.385,305.482 375.973,303.28C377.815,300.725 379.658,298.171 381.5,295.616C383.863,292.34 386.346,288.341 385.004,284.531C384.474,283.602 383.484,283.027 382.414,283.027C381.087,283.027 379.912,283.913 379.547,285.189C378.959,287.246 380.528,289.872 379.027,291.396C377.97,292.248 376.44,292.219 375.415,291.329C374.443,290.431 373.703,289.311 373.257,288.065C371.438,284.023 369.666,279.956 367.799,275.937C367.209,274.666 366.593,272.49 364.805,272.705C363.252,272.891 362.414,275.153 362.468,276.467C362.546,278.378 363.603,280.086 364.41,281.82C365.217,283.554 365.782,285.637 364.895,287.332C363.773,289.478 360.93,289.96 358.509,289.889C353.946,289.751 349.475,288.571 345.437,286.44C345.332,288.683 345.226,290.926 345.121,293.168C341.908,291.823 338.694,290.478 335.481,289.133C334.857,288.872 334.233,288.611 333.608,288.35C330.898,287.215 328.184,286.079 325.393,285.158C323.809,284.635 322.203,284.183 320.597,283.73C319.621,283.455 318.645,283.18 317.669,282.905C315.743,282.222 313.7,281.931 311.66,282.047C309.517,282.317 307.605,283.468 305.623,284.328C301.201,286.248 295.481,284.317 290.742,284.283C287.036,278.872 280.885,275.63 274.327,275.63C267.38,275.63 260.917,279.269 257.315,285.209C256.482,286.65 255.74,288.142 255.093,289.676C254.45,291.117 253.807,292.558 253.164,293.999C252.221,296.113 251.257,298.34 251.442,300.647C251.627,302.955 253.396,305.312 255.711,305.291C250.253,307.762 249.117,316.409 253.752,320.206C255.035,321.257 256.609,321.945 257.764,323.136C258.902,324.31 259.539,325.881 259.539,327.516C259.539,330.967 256.699,333.808 253.247,333.808C253.177,333.808 253.107,333.806 253.037,333.804C259.673,336.369 267.265,333.991 271.252,328.099C273.233,324.996 274.095,321.12 276.79,318.613C280.36,315.292 286.257,315.55 290.375,318.161C294.493,320.772 297.097,325.217 298.889,329.752C301.237,335.694 302.74,342.484 307.742,346.459C310.161,348.38 313.224,349.461 315.362,351.691C318.406,354.867 318.933,359.661 318.864,364.06C318.796,368.458 318.322,373.023 319.924,377.12C321.527,381.217 326.121,384.587 330.24,383.043C327.819,390.226 330.676,398.197 337.109,402.207C336.359,397.552 335.608,392.897 334.858,388.242C338.598,389.295 341.023,392.924 342.423,396.549C343.823,400.174 344.563,404.094 346.592,407.408C349.788,412.626 355.576,414.874 361.463,414.855C367.823,414.833 370.237,411.801 374.429,407.335C375.271,406.573 375.91,405.614 376.288,404.543C376.64,403.432 376.116,402.219 375.065,401.715Z" style="fill:rgb(230,230,230);fill-rule:nonzero;"/>
            </g>
            <g transform="matrix(1,0,0,1,-250.858,-175.882)">
                <path d="M393.074,401.483C389.519,400.924 385.964,400.366 382.409,399.807C384.273,400.927 386.136,402.048 388,403.168C389.554,404.202 391.243,405.016 393.021,405.587C394.821,406.153 396.779,405.947 398.422,405.018L397.967,404.149C397.25,402.336 394.999,401.786 393.074,401.483Z" style="fill:rgb(230,230,230);fill-rule:nonzero;"/>
            </g>
            <g transform="matrix(1,0,0,1,-250.858,-175.882)">
                <path d="M390.658,421.243L390.683,421.182C390.244,420.454 389.402,420.064 388.563,420.199C387.744,420.345 386.907,420.359 386.084,420.239C385.024,419.825 384.228,418.921 383.952,417.816C383.599,416.753 383.494,415.616 383.092,414.57C382.5,412.887 381.01,411.671 379.242,411.43C377.44,411.285 375.834,412.634 375.663,414.434C375.732,415.33 376.017,416.196 376.493,416.958C376.877,417.695 377.26,418.433 377.644,419.171C377.967,419.832 378.338,420.468 378.756,421.074C380.153,422.998 382.392,424.14 384.77,424.14C387.074,424.14 389.252,423.069 390.658,421.243L390.658,421.243Z" style="fill:rgb(230,230,230);fill-rule:nonzero;"/>
            </g>
            <g transform="matrix(1,0,0,1,-250.858,-175.882)">
                <path d="M369.897,232.068C372.604,233.664 375.994,234.764 377.28,237.631L378.022,237.871C377.212,238.876 376.403,239.882 375.594,240.888C374.593,242.13 373.542,243.515 373.565,245.11C373.597,247.307 375.711,248.964 377.846,249.482C382.542,250.449 387.261,247.667 388.69,243.09C388.944,242.164 389.049,241.204 389.272,240.27C389.921,238.054 390.901,235.95 392.178,234.027C399.366,221.934 406.553,209.841 413.741,197.749C414.637,196.243 415.559,194.441 414.886,192.824C414.153,191.427 412.635,190.613 411.066,190.774C409.532,190.96 408.052,191.458 406.717,192.236C405.514,190.123 403.345,188.733 400.924,188.522C398.536,188.338 396.134,188.547 393.814,189.141C388.572,189.932 383.518,191.668 378.897,194.266C376.369,195.544 373.587,197.122 372.853,199.858C371.951,203.224 374.859,206.654 378.206,207.621C381.554,208.588 385.127,207.776 388.515,206.962C388.65,207.542 388.719,208.137 388.719,208.733C388.719,213.012 385.197,216.534 380.918,216.534C378.886,216.534 376.932,215.739 375.476,214.322C373.048,211.957 371.858,207.852 368.524,207.242C365.2,206.633 362.558,210.178 361.825,213.477C360.358,220.736 363.592,228.183 369.897,232.068Z" style="fill:rgb(230,230,230);fill-rule:nonzero;"/>
            </g>
            <g transform="matrix(1,0,0,1,-250.858,-175.882)">
                <path d="M411.585,290.256C409.985,285.745 407.881,281.428 405.314,277.387C403.368,274.192 400.967,271.298 398.186,268.797C395.644,266.602 392.722,264.89 389.564,263.747C386.499,262.638 383.087,262.091 379.988,263.101C376.89,264.112 374.253,266.993 374.316,270.252C374.386,273.855 377.538,276.673 380.824,278.154C384.109,279.634 387.764,280.278 390.864,282.116C395.14,284.71 397.854,289.271 398.092,294.266L398.873,295.557C397.104,296.143 395.455,297.041 394.003,298.208C392.541,299.415 391.834,301.318 392.153,303.186C392.695,305.368 394.922,306.62 396.937,307.618C400.659,309.461 404.382,311.305 408.104,313.148C406.209,307.497 412.414,302.238 412.757,296.287C412.77,294.219 412.372,292.169 411.585,290.256Z" style="fill:rgb(230,230,230);fill-rule:nonzero;"/>
            </g>
            <g transform="matrix(1,0,0,1,-250.858,-175.882)">
                <path d="M317.988,274.997C320.246,276.751 323.718,275.931 325.786,273.957C327.855,271.984 328.862,269.175 329.802,266.475C329.459,269.148 329.491,271.855 329.898,274.519C330.327,277.211 331.866,279.603 334.138,281.108C335.158,281.668 336.259,282.069 337.401,282.296C342.708,283.504 348.256,283.108 353.338,281.158L353.383,279.42C350.83,279.711 348.898,276.911 348.73,274.347C348.561,271.783 349.492,269.268 349.573,266.7C349.655,264.132 348.417,261.131 345.889,260.674C346.226,261.351 346.401,262.097 346.401,262.853C346.401,265.534 344.194,267.741 341.513,267.741C340.882,267.741 340.256,267.619 339.672,267.381C336.745,266.191 335.681,262.625 333.42,260.419C330.568,257.882 326.45,257.303 323.009,258.955C319.642,260.673 317.193,263.787 316.318,267.465C315.631,270.103 315.834,273.325 317.988,274.997Z" style="fill:rgb(230,230,230);fill-rule:nonzero;"/>
            </g>
            <g transform="matrix(1,0,0,1,-250.858,-175.882)">
                <path d="M387.677,256.697L387.782,256.527C387.151,254.707 385.197,253.639 383.29,253.368C381.368,253.241 379.437,253.305 377.527,253.559C375.6,253.808 373.645,253.378 372.001,252.342C370.688,251.36 369.94,249.816 368.89,248.557C367.841,247.298 366.142,246.262 364.618,246.865C362.967,247.516 362.527,249.83 363.328,251.413C364.271,252.933 365.695,254.095 367.373,254.715C373.726,257.632 380.879,258.33 387.677,256.697Z" style="fill:rgb(230,230,230);fill-rule:nonzero;"/>
            </g>
            <g transform="matrix(1,0,0,1,-250.858,-175.882)">
                <path d="M365.985,262.153C365.334,262.63 364.948,263.391 364.948,264.198C364.948,265.589 366.093,266.733 367.483,266.733C367.951,266.733 368.411,266.603 368.81,266.359L369.366,266.908C370.107,265.582 370.412,263.805 369.465,262.618C368.598,261.603 367.089,261.402 365.985,262.153Z" style="fill:rgb(230,230,230);fill-rule:nonzero;"/>
            </g>
            <g transform="matrix(1,0,0,1,-250.858,-175.882)">
                <path d="M359.469,266.911C359.485,265.943 358.902,265.06 358.005,264.696C357.879,264.675 357.752,264.664 357.625,264.664C356.499,264.664 355.538,265.51 355.396,266.627C355.303,267.865 355.728,269.088 356.57,270.001C357.06,270.737 357.843,271.229 358.718,271.351C359.591,271.379 360.481,270.467 360.127,269.669L358.794,269.643C359.205,268.788 359.435,267.858 359.469,266.911Z" style="fill:rgb(230,230,230);fill-rule:nonzero;"/>
            </g>
            <g transform="matrix(1,0,0,1,-250.858,-175.882)">
                <path d="M333.41,253.264C333.899,253.661 334.389,254.058 334.878,254.454C335.726,255.187 336.641,255.837 337.613,256.396C339.311,257.337 341.31,257.581 343.185,257.078C345.065,256.542 346.546,255.081 347.107,253.208C347.692,251.003 346.738,248.714 345.804,246.632C345.591,246.037 345.239,245.501 344.778,245.068C344.292,244.638 343.564,244.609 343.047,245C342.675,245.462 342.57,246.085 342.768,246.644C342.969,247.192 343.061,247.775 343.038,248.358C342.945,248.934 342.341,249.478 341.809,249.239L341.724,251.198C339.183,249.912 337.839,246.491 335.012,246.153C334.874,246.137 334.736,246.129 334.598,246.129C332.684,246.129 331.108,247.704 331.108,249.619C331.108,250.197 331.252,250.766 331.526,251.275C332.017,252.056 332.657,252.732 333.41,253.264Z" style="fill:rgb(230,230,230);fill-rule:nonzero;"/>
            </g>
            <g transform="matrix(1,0,0,1,-250.858,-175.882)">
                <path d="M327.358,244.807C328.554,243.987 329.193,242.56 329.007,241.121C328.781,240.019 327.802,239.22 326.677,239.22C326.369,239.22 326.063,239.28 325.778,239.397C325.052,239.94 324.542,240.723 324.338,241.606C323.669,243.495 322.999,245.384 322.329,247.273L323.455,246.454C324.847,246.154 326.171,245.596 327.358,244.807Z" style="fill:rgb(230,230,230);fill-rule:nonzero;"/>
            </g>
            <g transform="matrix(1,0,0,1,-250.858,-175.882)">
                <path d="M340.401,233.214C340.711,232.823 340.88,232.338 340.88,231.838C340.88,231.025 340.432,230.275 339.717,229.889L338.309,229.758C337.375,229.994 336.716,230.841 336.716,231.805C336.716,232.964 337.669,233.917 338.828,233.917C339.428,233.917 340,233.661 340.401,233.214Z" style="fill:rgb(230,230,230);fill-rule:nonzero;"/>
            </g>
            <g transform="matrix(1,0,0,1,-250.858,-175.882)">
                <path d="M353.349,235.387C354.662,236.015 356.324,236.614 357.467,235.711C358.155,235.089 358.459,234.143 358.262,233.236C358.057,232.346 357.661,231.512 357.101,230.79C355.354,228.282 353.134,226.138 350.566,224.48L349.931,225.305C349.044,227.608 348.188,230.296 349.425,232.432C350.259,233.871 351.848,234.669 353.349,235.387Z" style="fill:rgb(230,230,230);fill-rule:nonzero;"/>
            </g>
            <g transform="matrix(1,0,0,1,-250.858,-175.882)">
                <path d="M363.132,237.436L365.588,238.547C365.096,237.689 364.102,237.239 363.132,237.436Z" style="fill:rgb(230,230,230);fill-rule:nonzero;"/>
            </g>
            <g transform="matrix(1,0,0,1,-250.858,-175.882)">
                <path d="M356.514,245.163L355.354,245.545C354.367,247.167 354.795,249.241 355.254,251.082C355.544,252.247 356.17,253.68 357.369,253.627C358.536,253.575 359.052,252.161 359.276,251.015C359.625,249.77 359.663,248.458 359.386,247.195C359.061,245.909 357.835,245.042 356.514,245.163Z" style="fill:rgb(230,230,230);fill-rule:nonzero;"/>
            </g>
            <g transform="matrix(1,0,0,1,-250.858,-175.882)">
                <path d="M338.008,239.706L338.867,240.051C339.32,239.987 339.661,239.594 339.661,239.136C339.661,238.629 339.244,238.212 338.737,238.212C338.23,238.212 337.812,238.629 337.812,239.136C337.812,239.343 337.881,239.543 338.008,239.706Z" style="fill:rgb(230,230,230);fill-rule:nonzero;"/>
            </g>
            <g transform="matrix(1,0,0,1,-250.858,-175.882)">
                <path d="M381.297,305.362C379.888,305.394 378.745,306.562 378.745,307.971C378.745,308.281 378.801,308.589 378.909,308.88C379.752,310.696 382.656,310.703 383.947,309.173C384.469,308.485 384.752,307.645 384.752,306.781C384.752,305.433 384.063,304.176 382.927,303.45L381.297,305.362Z" style="fill:rgb(230,230,230);fill-rule:nonzero;"/>
            </g>
            <g transform="matrix(1,0,0,1,-250.858,-175.882)">
                <path d="M423.122,348.373C421.982,348.677 421.182,349.718 421.182,350.898C421.182,351.15 421.219,351.4 421.291,351.642L423.701,351.809C424.518,351.399 425.334,350.99 426.151,350.58C425.968,349.298 424.858,348.336 423.564,348.336C423.416,348.336 423.268,348.348 423.122,348.373Z" style="fill:rgb(230,230,230);fill-rule:nonzero;"/>
            </g>
            <g transform="matrix(1,0,0,1,-250.858,-175.882)">
                <path d="M413.323,351.356C411.922,352.35 411.131,354.002 411.234,355.717C411.395,357.441 412.662,358.872 414.353,359.241C416.075,359.511 417.733,358.387 418.119,356.687C418.526,354.194 415.846,352.367 414.883,350.031L413.323,351.356Z" style="fill:rgb(230,230,230);fill-rule:nonzero;"/>
            </g>
            <g transform="matrix(1,0,0,1,-250.858,-175.882)">
                <path d="M506.959,334.887C507.213,336.759 505.526,338.398 505.464,340.287C505.389,342.527 507.828,344.27 510.059,344.05C512.302,343.661 514.237,342.24 515.278,340.216L515.327,340.006C514.24,338.778 513.153,337.55 512.067,336.322C510.733,334.814 509.318,333.097 509.37,331.084C509.396,330.092 509.787,329.13 509.765,328.138C509.713,327.424 509.554,326.722 509.293,326.055C508.998,325.177 508.598,324.188 507.72,323.891C506.622,323.52 505.514,324.494 504.99,325.527C504.033,327.462 504.105,329.752 505.181,331.623C505.816,332.7 506.79,333.648 506.959,334.887Z" style="fill:rgb(230,230,230);fill-rule:nonzero;"/>
            </g>
            <g transform="matrix(1,0,0,1,-250.858,-175.882)">
                <path d="M496.712,341.473C497.193,341.733 497.764,341.769 498.273,341.573C499.242,341.408 500.172,341.07 501.02,340.575C501.877,340.06 502.391,339.121 502.364,338.122C502.065,336.861 501.03,335.9 499.75,335.695C498.867,335.384 497.885,335.534 497.135,336.094C496.326,336.853 496.422,338.142 496.581,339.241L496.41,339.527C496.258,340.206 496.16,341.05 496.712,341.473Z" style="fill:rgb(230,230,230);fill-rule:nonzero;"/>
            </g>
            <g transform="matrix(1,0,0,1,-250.858,-175.882)">
                <path d="M667.738,421.476C667.503,420.892 667.268,420.307 667.033,419.723C666.711,420.516 666.83,421.328 667.738,421.476Z" style="fill:rgb(230,230,230);fill-rule:nonzero;"/>
            </g>
            <g transform="matrix(1,0,0,1,-250.858,-175.882)">
                <path d="M808.815,298.549C805.799,295.277 803.952,293.39 802.048,289.335C799.945,284.796 795.696,281.605 790.75,280.851C784.494,279.82 778.1,281.452 771.767,281.125C761.624,280.601 752.478,275.161 742.764,272.193C737.325,270.669 731.786,269.527 726.188,268.775C722.963,268.265 719.737,267.754 716.512,267.244C705.938,265.572 695.298,263.895 684.595,264.117C681.509,264.181 677.21,263.254 677.457,260.177C677.765,256.355 684.64,256.857 685.962,253.259C686.781,251.033 684.822,248.695 682.675,247.689C680.528,246.682 678.049,246.38 676.1,245.028C674.151,243.677 673.083,240.544 674.874,238.99C669.91,241.535 664.945,244.08 659.98,246.625C655.852,248.741 651.241,251.494 650.512,256.075C648.025,256.732 645.847,258.245 644.364,260.346C641.571,260.361 639.376,263.042 638.916,265.796C638.455,268.551 639.293,271.338 640.12,274.006C639.107,272.065 638.031,270.051 636.246,268.785C634.46,267.519 631.742,267.278 630.22,268.85C628.658,270.464 629.024,273.172 630.128,275.128C631.234,277.083 632.931,278.661 633.974,280.651C637.23,286.864 631.329,295.612 624.349,294.92C624.817,288.504 625.285,282.088 625.753,275.672C626.05,273.698 625.884,271.683 625.268,269.784C624.507,267.948 622.557,266.439 620.617,266.873C617.128,267.653 617.426,272.764 618.877,276.031C620.329,279.298 621.775,283.841 618.813,285.842C616.899,287.134 614.305,286.336 612.24,285.305C610.174,284.274 607.965,283.003 605.707,283.485C603.449,283.966 602.029,287.418 604.024,288.58C600.716,288.005 597.407,287.43 594.099,286.855C593.53,290.24 590.57,292.744 587.138,292.744C586.505,292.744 585.876,292.659 585.266,292.491C584.941,291.145 584.616,289.799 584.291,288.453C583.807,288.318 583.323,288.184 582.839,288.049C584.359,288.472 581.981,294.881 579.85,299.776C576.984,299.44 572.797,299.375 572.319,298.554C570.031,294.622 570.303,285.257 566.328,283.045C564.334,281.935 562.29,280.924 560.195,280.012C559.094,279.488 557.931,279.107 556.734,278.876C554.293,278.491 551.832,279.248 549.476,279.997C546.693,280.88 543.844,281.798 541.54,283.592C539.572,285.299 537.884,287.305 536.54,289.537C531.99,296.272 527.439,303.006 522.889,309.741C521.533,311.54 520.466,313.539 519.727,315.666C519.022,317.806 519.286,320.15 520.447,322.08C521.689,323.999 524.103,324.824 526.26,324.066C527.579,323.495 528.9,322.201 530.207,322.798C531.196,323.251 531.444,324.552 531.34,325.635C531.088,326.696 531.069,327.799 531.282,328.868C531.877,330.555 534.166,331.141 535.799,330.412C537.386,329.546 538.576,328.097 539.117,326.372C540.69,322.337 540.53,317.872 540.921,313.56C541.313,309.247 542.492,304.634 545.892,301.952C546.91,301.149 548.406,300.571 549.454,301.334C550.256,302.063 550.508,303.228 550.08,304.224C549.641,305.188 549.07,306.085 548.383,306.89C546.035,310.192 545.164,314.326 545.979,318.295L546.674,318.725C549.325,318.038 552.873,319.269 556.394,320.45C553.839,321.209 551.588,322.757 549.965,324.871C545.896,330.58 542.951,335.982 534.903,335.915C532.993,335.898 531.1,335.521 529.19,335.517C527.264,335.398 525.364,336.03 523.893,337.281C522.446,338.698 521.998,340.856 520.76,342.46C519.132,344.568 516.41,345.426 513.924,346.383C512.107,347.083 510.192,348.027 509.357,349.786C508.832,351.228 508.711,352.786 509.007,354.292C509.287,356.955 509.783,359.985 512.042,361.422C513.748,362.312 515.742,362.481 517.574,361.89C519.924,361.319 522.223,360.242 524.636,360.403C528.425,360.655 531.546,364.293 531.584,368.091C531.604,370.013 531.043,372.218 532.317,373.658C533.514,375.01 535.889,374.769 537.13,373.456C538.3,372.039 538.692,370.129 538.175,368.366C537.648,366.634 536.838,365.002 535.777,363.535C538.368,362.864 541.097,364.126 542.264,366.534C543.106,368.404 542.834,370.562 543.103,372.595C543.371,374.628 544.609,376.888 546.656,377.005C548.032,377.043 549.251,376.086 549.541,374.741C549.562,373.709 549.506,372.677 549.372,371.654C549.517,369.574 551.282,367.948 553.366,367.974C552.087,370.338 552.669,373.306 554.748,375.011C556.306,376.217 558.365,376.486 560.306,376.823C562.247,377.16 564.318,377.693 565.571,379.214C567.657,381.747 565.104,382.887 564.707,385.032C564.219,387.665 566.418,391.554 567.263,394.073C571.145,399.504 575.028,404.936 578.91,410.367C579.777,411.687 580.799,412.899 581.955,413.976C585.787,417.268 592.105,416.943 595.78,413.477C599.428,409.786 600.248,404.109 597.793,399.538C595.522,395.403 591.022,392.843 588.799,388.682C592.498,391.743 597.04,393.611 601.822,394.037C610.284,395.757 618.325,399.129 625.482,403.96C625.818,411.436 628.689,418.58 633.618,424.211C634.505,417.83 637.481,411.92 642.08,407.408C645.071,404.491 649.157,402.14 653.261,402.924C657.364,403.709 660.478,408.941 657.996,412.302C660.075,412.457 662.155,412.611 664.235,412.766C665.167,415.085 666.1,417.404 667.033,419.723C667.373,418.725 668.329,418.061 669.383,418.091C671.33,418.385 672.695,420.197 674.547,420.866C678.038,422.126 681.77,418.634 682.221,414.95C682.673,411.266 680.92,407.709 679.218,404.411C680.399,404.63 681.598,404.74 682.799,404.74C693.59,404.74 702.47,395.86 702.47,385.069C702.47,381.351 701.416,377.708 699.43,374.565C703.477,370.314 708.24,366.807 713.501,364.205C718.37,361.8 723.696,360.149 727.951,356.775C732.206,353.401 735.191,347.542 733.144,342.512C731.698,338.958 728.072,336.546 726.986,332.867C725.415,327.54 730.188,322.031 735.579,320.7C740.971,319.369 746.601,321.005 751.912,322.628C751.096,317.163 757.431,312.04 762.604,313.98C764.771,313.103 766.938,312.226 769.105,311.348C766.593,316.886 761.15,320.409 757.148,324.987C753.146,329.565 750.763,337.02 754.944,341.436C760.936,336.005 766.928,330.574 772.92,325.142C779.188,319.461 785.456,313.78 791.724,308.099C791.425,307.22 791.125,306.341 790.826,305.462C796.756,303.209 803.143,301.346 808.815,298.549Z" style="fill:rgb(230,230,230);fill-rule:nonzero;"/>
            </g>
            <g transform="matrix(1,0,0,1,-250.858,-175.882)">
                <path d="M497.572,371.645C497.077,372.358 497.082,373.31 497.584,374.017C498.245,374.579 499.221,374.592 499.897,374.048C500.541,373.499 501.044,372.803 501.363,372.019C501.999,373.25 503.345,373.955 504.719,373.777C506.062,373.575 507.334,373.044 508.423,372.233C509.286,371.727 510.049,371.065 510.671,370.282C511.296,369.482 511.505,368.433 511.237,367.455C510.913,366.714 510.411,366.066 509.775,365.568C508.19,364.103 506.604,362.639 505.018,361.174L504.481,361.013C503.909,360.404 503.109,360.058 502.273,360.058C501.459,360.058 500.679,360.386 500.109,360.967C499.125,362.069 499.12,363.715 499.271,365.186C499.421,366.656 499.656,368.222 499.001,369.547C498.626,370.307 497.99,370.908 497.572,371.645Z" style="fill:rgb(230,230,230);fill-rule:nonzero;"/>
            </g>
            <g transform="matrix(1,0,0,1,-250.858,-175.882)">
                <path d="M589.567,421.676C577.008,418.88 567.174,408.996 564.442,396.422C563.858,393.511 563.593,390.33 561.657,388.08C559.782,385.901 556.719,385.114 553.844,385.115C550.97,385.115 548.136,385.776 545.268,385.955C540.252,386.268 534.937,384.943 531.35,381.423C529.652,379.756 528.366,377.639 526.382,376.324C523.716,374.557 520.181,374.558 517.143,375.56C513.76,376.675 511.051,379.726 507.352,379.306C503.504,378.87 499.044,377.509 497.536,382.576C497.101,384.035 497.249,385.635 496.699,387.054C495.851,389.241 493.601,390.475 491.821,392.003C488.235,395.08 486.329,399.756 485.687,404.437C485.045,409.119 485.542,413.873 486.039,418.572C486.307,421.107 486.66,423.834 488.401,425.696C490.828,428.291 494.9,428.19 498.441,427.898C502.555,427.558 506.668,427.219 510.782,426.879C513,426.696 515.526,426.618 517.105,428.186C518.051,429.126 518.451,430.485 519.283,431.527C520.816,433.346 523.423,433.872 525.54,432.789C524.672,434.339 524.216,436.087 524.216,437.865C524.216,443.102 528.177,447.561 533.377,448.18L533.694,448.38C531.061,452.89 528.328,457.954 529.42,463.061C530.357,467.44 533.983,470.951 534.576,475.389C535.12,479.461 532.996,483.626 533.936,487.626C534.888,491.676 538.978,494.499 543.127,494.801C547.277,495.102 551.354,493.262 554.568,490.62C557.782,487.978 560.268,484.576 562.717,481.212C564.229,479.135 565.78,476.974 566.299,474.458C566.851,471.781 566.211,468.814 567.513,466.41C569.014,463.638 572.578,462.599 574.377,460.01C576.706,456.658 575.334,452.092 575.849,448.042C577.123,438.02 589.857,431.774 589.567,421.676Z" style="fill:rgb(230,230,230);fill-rule:nonzero;"/>
            </g>
            <g transform="matrix(1,0,0,1,-250.858,-175.882)">
                <path d="M723.068,376.064C721.55,376.017 719.871,375.924 718.695,376.885C718.308,377.23 717.969,377.626 717.686,378.061L717.271,378.641C716.65,379.454 716.11,380.324 715.655,381.239C715.176,382.107 715.095,383.142 715.436,384.073C715.698,384.668 716.289,385.053 716.939,385.053C717.267,385.053 717.589,384.954 717.861,384.77C718.509,384.169 718.358,383.079 718.848,382.343C719.286,381.782 719.963,381.458 720.674,381.47C721.375,381.488 722.072,381.567 722.759,381.706C723.212,381.768 723.668,381.799 724.124,381.799C729.643,381.799 734.184,377.258 734.184,371.739C734.184,369.822 733.636,367.944 732.604,366.327L732.482,365.954C730.323,365.872 728.394,367.358 727.925,369.468C727.585,371.236 728.305,373.29 727.233,374.736C726.329,375.956 724.585,376.111 723.068,376.064Z" style="fill:rgb(230,230,230);fill-rule:nonzero;"/>
            </g>
            <g transform="matrix(1,0,0,1,-250.858,-175.882)">
                <path d="M713.262,376.514C713.625,375.933 713.883,375.293 714.024,374.622C714.165,374.102 714.307,373.581 714.448,373.061L712.936,372.142C712.213,372.518 711.547,372.993 710.956,373.553C710.361,374.124 710.032,374.918 710.047,375.741C710.09,376.577 710.708,377.279 711.532,377.427C712.228,377.448 712.886,377.101 713.262,376.514Z" style="fill:rgb(230,230,230);fill-rule:nonzero;"/>
            </g>
            <g transform="matrix(1,0,0,1,-250.858,-175.882)">
                <path d="M548.477,235.85C547.878,236.223 548.048,237.125 548.29,237.786C548.569,238.546 548.847,239.306 549.126,240.066L549.516,238.591C549.858,238.019 550.009,237.352 549.947,236.689C549.812,236.041 549.039,235.5 548.477,235.85Z" style="fill:rgb(230,230,230);fill-rule:nonzero;"/>
            </g>
            <g transform="matrix(1,0,0,1,0.000116572,-30.171)">
                <circle cx="89.957" cy="220.559" r="6" style="fill:rgb(241,255,83);"/>
            </g>
            <g transform="matrix(1,0,0,1,0.000116572,-30.171)">
                <circle cx="105.957" cy="191.559" r="6" style="fill:rgb(241,255,83);"/>
            </g>
            <g transform="matrix(1,0,0,1,0.000116572,-30.171)">
                <circle cx="281.957" cy="168.559" r="6" style="fill:rgb(241,255,83);"/>
            </g>
        </g>
    </g>
</svg>
