<?xml version="1.0" encoding="UTF-8" standalone="no"?>
<!DOCTYPE svg PUBLIC "-//W3C//DTD SVG 1.1//EN" "http://www.w3.org/Graphics/SVG/1.1/DTD/svg11.dtd">
<svg width="100%" height="100%" viewBox="0 0 1280 300" version="1.1" xmlns="http://www.w3.org/2000/svg" xmlns:xlink="http://www.w3.org/1999/xlink" xml:space="preserve" xmlns:serif="http://www.serif.com/" style="fill-rule:evenodd;clip-rule:evenodd;stroke-linejoin:round;stroke-miterlimit:2;">
    <g transform="matrix(0.841099,0,0,1.06293,138.551,-24.5908)">
        <g transform="matrix(41.3952,0,0,41.3952,169,94)">
            <path d="M1.145,-0.654C1.135,-0.653 1.125,-0.651 1.115,-0.647C1.105,-0.644 1.095,-0.639 1.085,-0.634C1.07,-0.626 1.059,-0.617 1.053,-0.606C1.047,-0.596 1.041,-0.584 1.036,-0.57C1.018,-0.52 0.99,-0.441 0.953,-0.332C0.916,-0.223 0.877,-0.11 0.836,0.008L0.738,0.008L0.555,-0.507L0.391,0.008L0.292,0.008C0.238,-0.15 0.196,-0.272 0.167,-0.358C0.138,-0.443 0.114,-0.515 0.094,-0.573C0.088,-0.59 0.081,-0.603 0.073,-0.611C0.065,-0.619 0.055,-0.627 0.042,-0.635C0.034,-0.641 0.024,-0.645 0.014,-0.648C0.004,-0.651 -0.007,-0.653 -0.02,-0.655L-0.02,-0.693L0.35,-0.693L0.35,-0.656C0.328,-0.653 0.312,-0.651 0.301,-0.648C0.29,-0.646 0.282,-0.643 0.276,-0.641C0.27,-0.638 0.266,-0.635 0.265,-0.632C0.264,-0.629 0.263,-0.627 0.263,-0.625C0.263,-0.62 0.263,-0.616 0.265,-0.611C0.266,-0.607 0.267,-0.602 0.268,-0.597C0.276,-0.571 0.292,-0.523 0.316,-0.452C0.339,-0.381 0.369,-0.293 0.404,-0.188L0.561,-0.693L0.665,-0.693L0.847,-0.172C0.874,-0.256 0.896,-0.324 0.912,-0.377C0.928,-0.431 0.942,-0.476 0.953,-0.514C0.959,-0.537 0.965,-0.556 0.968,-0.572C0.972,-0.587 0.974,-0.601 0.974,-0.612C0.974,-0.619 0.971,-0.625 0.965,-0.63C0.959,-0.635 0.95,-0.639 0.939,-0.643C0.93,-0.646 0.918,-0.648 0.904,-0.65C0.89,-0.651 0.877,-0.653 0.866,-0.654L0.866,-0.693L1.145,-0.693L1.145,-0.654Z" style="fill:rgb(250,245,209);fill-opacity:0.75;fill-rule:nonzero;"/>
        </g>
        <g transform="matrix(41.3952,0,0,41.3952,215.63,94)">
            <path d="M0.648,-0.516L0.611,-0.516C0.601,-0.542 0.585,-0.569 0.562,-0.596C0.539,-0.623 0.516,-0.639 0.493,-0.644C0.483,-0.646 0.47,-0.647 0.452,-0.648C0.435,-0.648 0.421,-0.648 0.409,-0.648L0.309,-0.648L0.309,-0.381L0.38,-0.381C0.398,-0.381 0.414,-0.383 0.429,-0.388C0.443,-0.392 0.457,-0.4 0.469,-0.412C0.476,-0.42 0.484,-0.433 0.491,-0.452C0.499,-0.471 0.504,-0.487 0.506,-0.501L0.543,-0.501L0.543,-0.212L0.506,-0.212C0.504,-0.226 0.499,-0.243 0.491,-0.263C0.483,-0.284 0.476,-0.298 0.469,-0.306C0.458,-0.318 0.445,-0.326 0.431,-0.33C0.416,-0.335 0.399,-0.337 0.38,-0.337L0.309,-0.337L0.309,-0.137C0.309,-0.116 0.31,-0.1 0.313,-0.088C0.316,-0.075 0.322,-0.066 0.331,-0.06C0.339,-0.053 0.35,-0.049 0.364,-0.047C0.378,-0.045 0.397,-0.044 0.422,-0.044C0.433,-0.044 0.447,-0.045 0.463,-0.045C0.479,-0.045 0.493,-0.046 0.505,-0.048C0.519,-0.049 0.531,-0.052 0.543,-0.055C0.555,-0.058 0.564,-0.063 0.57,-0.069C0.585,-0.085 0.603,-0.11 0.623,-0.142C0.642,-0.175 0.655,-0.2 0.661,-0.216L0.697,-0.216L0.684,-0L0.034,-0L0.034,-0.038C0.043,-0.039 0.055,-0.04 0.071,-0.042C0.086,-0.044 0.097,-0.046 0.104,-0.049C0.116,-0.054 0.125,-0.061 0.129,-0.069C0.133,-0.077 0.135,-0.087 0.135,-0.099L0.135,-0.588C0.135,-0.6 0.133,-0.609 0.13,-0.617C0.126,-0.625 0.118,-0.632 0.104,-0.638C0.096,-0.642 0.084,-0.645 0.068,-0.648C0.053,-0.652 0.042,-0.654 0.034,-0.655L0.034,-0.693L0.648,-0.693L0.648,-0.516Z" style="fill:rgb(250,245,209);fill-opacity:0.75;fill-rule:nonzero;"/>
        </g>
        <g transform="matrix(41.3952,0,0,41.3952,255.995,94)">
            <path d="M0.786,-0L0.408,-0L0.408,-0.038C0.426,-0.039 0.446,-0.043 0.47,-0.048C0.494,-0.053 0.506,-0.059 0.506,-0.066C0.506,-0.069 0.505,-0.072 0.505,-0.075C0.504,-0.078 0.503,-0.083 0.501,-0.088L0.442,-0.232L0.202,-0.232C0.197,-0.219 0.191,-0.203 0.184,-0.185C0.178,-0.167 0.172,-0.151 0.167,-0.137C0.161,-0.119 0.157,-0.106 0.156,-0.098C0.155,-0.09 0.154,-0.084 0.154,-0.081C0.154,-0.07 0.162,-0.061 0.178,-0.054C0.194,-0.047 0.22,-0.041 0.257,-0.038L0.257,-0L-0.027,-0L-0.027,-0.038C-0.017,-0.039 -0.004,-0.04 0.009,-0.043C0.023,-0.046 0.033,-0.05 0.041,-0.055C0.054,-0.063 0.066,-0.072 0.075,-0.083C0.084,-0.095 0.092,-0.108 0.098,-0.124C0.136,-0.215 0.174,-0.307 0.212,-0.399C0.25,-0.491 0.292,-0.592 0.337,-0.703L0.435,-0.703C0.499,-0.546 0.549,-0.422 0.585,-0.331C0.621,-0.239 0.652,-0.164 0.677,-0.104C0.681,-0.094 0.687,-0.085 0.693,-0.077C0.7,-0.069 0.709,-0.062 0.721,-0.055C0.73,-0.049 0.741,-0.046 0.753,-0.043C0.765,-0.04 0.776,-0.039 0.786,-0.038L0.786,-0ZM0.422,-0.28L0.321,-0.531L0.222,-0.28L0.422,-0.28Z" style="fill:rgb(250,245,209);fill-opacity:0.6;fill-rule:nonzero;"/>
        </g>
        <g transform="matrix(41.3952,0,0,41.3952,287.385,94)">
            <path d="M0.829,-0L0.563,-0C0.517,-0.07 0.479,-0.126 0.449,-0.168C0.418,-0.21 0.381,-0.258 0.335,-0.313L0.309,-0.313L0.309,-0.102C0.309,-0.09 0.311,-0.08 0.315,-0.072C0.32,-0.064 0.328,-0.057 0.34,-0.052C0.347,-0.049 0.356,-0.046 0.369,-0.044C0.383,-0.041 0.394,-0.039 0.403,-0.038L0.403,-0L0.034,-0L0.034,-0.038C0.043,-0.039 0.056,-0.04 0.071,-0.042C0.087,-0.044 0.097,-0.046 0.104,-0.049C0.116,-0.054 0.125,-0.061 0.129,-0.069C0.133,-0.077 0.135,-0.087 0.135,-0.099L0.135,-0.588C0.135,-0.6 0.133,-0.609 0.13,-0.617C0.126,-0.625 0.118,-0.632 0.104,-0.638C0.094,-0.642 0.081,-0.646 0.067,-0.648C0.053,-0.651 0.042,-0.653 0.034,-0.655L0.034,-0.693L0.422,-0.693C0.509,-0.693 0.575,-0.679 0.62,-0.652C0.665,-0.625 0.688,-0.584 0.688,-0.529C0.688,-0.48 0.674,-0.441 0.646,-0.412C0.618,-0.382 0.576,-0.359 0.519,-0.343C0.541,-0.314 0.567,-0.281 0.596,-0.243C0.626,-0.205 0.657,-0.167 0.688,-0.127C0.699,-0.115 0.712,-0.099 0.73,-0.081C0.747,-0.062 0.763,-0.051 0.776,-0.047C0.783,-0.045 0.793,-0.043 0.804,-0.041C0.816,-0.039 0.824,-0.038 0.829,-0.038L0.829,-0ZM0.497,-0.515C0.497,-0.561 0.484,-0.595 0.458,-0.616C0.432,-0.638 0.395,-0.648 0.347,-0.648L0.309,-0.648L0.309,-0.358L0.346,-0.358C0.394,-0.358 0.431,-0.371 0.457,-0.396C0.483,-0.421 0.497,-0.461 0.497,-0.515Z" style="fill:rgb(250,245,209);fill-opacity:0.6;fill-rule:nonzero;"/>
        </g>
        <g transform="matrix(41.3952,0,0,41.3952,320.392,94)">
            <path d="M0.648,-0.516L0.611,-0.516C0.601,-0.542 0.585,-0.569 0.562,-0.596C0.539,-0.623 0.516,-0.639 0.493,-0.644C0.483,-0.646 0.47,-0.647 0.452,-0.648C0.435,-0.648 0.421,-0.648 0.409,-0.648L0.309,-0.648L0.309,-0.381L0.38,-0.381C0.398,-0.381 0.414,-0.383 0.429,-0.388C0.443,-0.392 0.457,-0.4 0.469,-0.412C0.476,-0.42 0.484,-0.433 0.491,-0.452C0.499,-0.471 0.504,-0.487 0.506,-0.501L0.543,-0.501L0.543,-0.212L0.506,-0.212C0.504,-0.226 0.499,-0.243 0.491,-0.263C0.483,-0.284 0.476,-0.298 0.469,-0.306C0.458,-0.318 0.445,-0.326 0.431,-0.33C0.416,-0.335 0.399,-0.337 0.38,-0.337L0.309,-0.337L0.309,-0.137C0.309,-0.116 0.31,-0.1 0.313,-0.088C0.316,-0.075 0.322,-0.066 0.331,-0.06C0.339,-0.053 0.35,-0.049 0.364,-0.047C0.378,-0.045 0.397,-0.044 0.422,-0.044C0.433,-0.044 0.447,-0.045 0.463,-0.045C0.479,-0.045 0.493,-0.046 0.505,-0.048C0.519,-0.049 0.531,-0.052 0.543,-0.055C0.555,-0.058 0.564,-0.063 0.57,-0.069C0.585,-0.085 0.603,-0.11 0.623,-0.142C0.642,-0.175 0.655,-0.2 0.661,-0.216L0.697,-0.216L0.684,-0L0.034,-0L0.034,-0.038C0.043,-0.039 0.055,-0.04 0.071,-0.042C0.086,-0.044 0.097,-0.046 0.104,-0.049C0.116,-0.054 0.125,-0.061 0.129,-0.069C0.133,-0.077 0.135,-0.087 0.135,-0.099L0.135,-0.588C0.135,-0.6 0.133,-0.609 0.13,-0.617C0.126,-0.625 0.118,-0.632 0.104,-0.638C0.096,-0.642 0.084,-0.645 0.068,-0.648C0.053,-0.652 0.042,-0.654 0.034,-0.655L0.034,-0.693L0.648,-0.693L0.648,-0.516Z" style="fill:rgb(250,245,209);fill-opacity:0.6;fill-rule:nonzero;"/>
        </g>
        <g transform="matrix(41.3952,0,0,41.3952,360.756,94)">
            <path d="M0.786,-0L0.408,-0L0.408,-0.038C0.426,-0.039 0.446,-0.043 0.47,-0.048C0.494,-0.053 0.506,-0.059 0.506,-0.066C0.506,-0.069 0.505,-0.072 0.505,-0.075C0.504,-0.078 0.503,-0.083 0.501,-0.088L0.442,-0.232L0.202,-0.232C0.197,-0.219 0.191,-0.203 0.184,-0.185C0.178,-0.167 0.172,-0.151 0.167,-0.137C0.161,-0.119 0.157,-0.106 0.156,-0.098C0.155,-0.09 0.154,-0.084 0.154,-0.081C0.154,-0.07 0.162,-0.061 0.178,-0.054C0.194,-0.047 0.22,-0.041 0.257,-0.038L0.257,-0L-0.027,-0L-0.027,-0.038C-0.017,-0.039 -0.004,-0.04 0.009,-0.043C0.023,-0.046 0.033,-0.05 0.041,-0.055C0.054,-0.063 0.066,-0.072 0.075,-0.083C0.084,-0.095 0.092,-0.108 0.098,-0.124C0.136,-0.215 0.174,-0.307 0.212,-0.399C0.25,-0.491 0.292,-0.592 0.337,-0.703L0.435,-0.703C0.499,-0.546 0.549,-0.422 0.585,-0.331C0.621,-0.239 0.652,-0.164 0.677,-0.104C0.681,-0.094 0.687,-0.085 0.693,-0.077C0.7,-0.069 0.709,-0.062 0.721,-0.055C0.73,-0.049 0.741,-0.046 0.753,-0.043C0.765,-0.04 0.776,-0.039 0.786,-0.038L0.786,-0ZM0.422,-0.28L0.321,-0.531L0.222,-0.28L0.422,-0.28Z" style="fill:white;fill-opacity:0.75;fill-rule:nonzero;"/>
        </g>
        <g transform="matrix(41.3952,0,0,41.3952,392.146,94)">
            <path d="M0.686,-0.222L0.672,-0L0.034,-0L0.034,-0.038C0.045,-0.039 0.058,-0.041 0.074,-0.043C0.089,-0.045 0.099,-0.047 0.104,-0.049C0.116,-0.053 0.124,-0.06 0.128,-0.068C0.133,-0.076 0.135,-0.086 0.135,-0.099L0.135,-0.588C0.135,-0.6 0.133,-0.609 0.13,-0.617C0.126,-0.625 0.118,-0.632 0.104,-0.638C0.094,-0.642 0.082,-0.646 0.068,-0.649C0.053,-0.651 0.042,-0.653 0.034,-0.655L0.034,-0.693L0.414,-0.693L0.414,-0.655C0.404,-0.654 0.391,-0.652 0.377,-0.651C0.363,-0.649 0.351,-0.646 0.34,-0.643C0.328,-0.639 0.319,-0.632 0.315,-0.623C0.311,-0.614 0.309,-0.604 0.309,-0.593L0.309,-0.137C0.309,-0.116 0.31,-0.099 0.313,-0.086C0.316,-0.074 0.322,-0.065 0.33,-0.059C0.339,-0.053 0.35,-0.049 0.365,-0.047C0.381,-0.045 0.402,-0.044 0.428,-0.044C0.454,-0.044 0.48,-0.046 0.504,-0.049C0.529,-0.052 0.546,-0.059 0.557,-0.069C0.574,-0.086 0.591,-0.109 0.608,-0.139C0.626,-0.17 0.639,-0.197 0.65,-0.222L0.686,-0.222Z" style="fill:white;fill-opacity:0.75;fill-rule:nonzero;"/>
        </g>
        <g transform="matrix(41.3952,0,0,41.3952,420.524,94)">
            <path d="M1.145,-0.654C1.135,-0.653 1.125,-0.651 1.115,-0.647C1.105,-0.644 1.095,-0.639 1.085,-0.634C1.07,-0.626 1.059,-0.617 1.053,-0.606C1.047,-0.596 1.041,-0.584 1.036,-0.57C1.018,-0.52 0.99,-0.441 0.953,-0.332C0.916,-0.223 0.877,-0.11 0.836,0.008L0.738,0.008L0.555,-0.507L0.391,0.008L0.292,0.008C0.238,-0.15 0.196,-0.272 0.167,-0.358C0.138,-0.443 0.114,-0.515 0.094,-0.573C0.088,-0.59 0.081,-0.603 0.073,-0.611C0.065,-0.619 0.055,-0.627 0.042,-0.635C0.034,-0.641 0.024,-0.645 0.014,-0.648C0.004,-0.651 -0.007,-0.653 -0.02,-0.655L-0.02,-0.693L0.35,-0.693L0.35,-0.656C0.328,-0.653 0.312,-0.651 0.301,-0.648C0.29,-0.646 0.282,-0.643 0.276,-0.641C0.27,-0.638 0.266,-0.635 0.265,-0.632C0.264,-0.629 0.263,-0.627 0.263,-0.625C0.263,-0.62 0.263,-0.616 0.265,-0.611C0.266,-0.607 0.267,-0.602 0.268,-0.597C0.276,-0.571 0.292,-0.523 0.316,-0.452C0.339,-0.381 0.369,-0.293 0.404,-0.188L0.561,-0.693L0.665,-0.693L0.847,-0.172C0.874,-0.256 0.896,-0.324 0.912,-0.377C0.928,-0.431 0.942,-0.476 0.953,-0.514C0.959,-0.537 0.965,-0.556 0.968,-0.572C0.972,-0.587 0.974,-0.601 0.974,-0.612C0.974,-0.619 0.971,-0.625 0.965,-0.63C0.959,-0.635 0.95,-0.639 0.939,-0.643C0.93,-0.646 0.918,-0.648 0.904,-0.65C0.89,-0.651 0.877,-0.653 0.866,-0.654L0.866,-0.693L1.145,-0.693L1.145,-0.654Z" style="fill:white;fill-opacity:0.75;fill-rule:nonzero;"/>
        </g>
        <g transform="matrix(41.3952,0,0,41.3952,467.155,94)">
            <path d="M0.786,-0L0.408,-0L0.408,-0.038C0.426,-0.039 0.446,-0.043 0.47,-0.048C0.494,-0.053 0.506,-0.059 0.506,-0.066C0.506,-0.069 0.505,-0.072 0.505,-0.075C0.504,-0.078 0.503,-0.083 0.501,-0.088L0.442,-0.232L0.202,-0.232C0.197,-0.219 0.191,-0.203 0.184,-0.185C0.178,-0.167 0.172,-0.151 0.167,-0.137C0.161,-0.119 0.157,-0.106 0.156,-0.098C0.155,-0.09 0.154,-0.084 0.154,-0.081C0.154,-0.07 0.162,-0.061 0.178,-0.054C0.194,-0.047 0.22,-0.041 0.257,-0.038L0.257,-0L-0.027,-0L-0.027,-0.038C-0.017,-0.039 -0.004,-0.04 0.009,-0.043C0.023,-0.046 0.033,-0.05 0.041,-0.055C0.054,-0.063 0.066,-0.072 0.075,-0.083C0.084,-0.095 0.092,-0.108 0.098,-0.124C0.136,-0.215 0.174,-0.307 0.212,-0.399C0.25,-0.491 0.292,-0.592 0.337,-0.703L0.435,-0.703C0.499,-0.546 0.549,-0.422 0.585,-0.331C0.621,-0.239 0.652,-0.164 0.677,-0.104C0.681,-0.094 0.687,-0.085 0.693,-0.077C0.7,-0.069 0.709,-0.062 0.721,-0.055C0.73,-0.049 0.741,-0.046 0.753,-0.043C0.765,-0.04 0.776,-0.039 0.786,-0.038L0.786,-0ZM0.422,-0.28L0.321,-0.531L0.222,-0.28L0.422,-0.28Z" style="fill:white;fill-opacity:0.75;fill-rule:nonzero;"/>
        </g>
        <g transform="matrix(41.3952,0,0,41.3952,498.545,94)">
            <path d="M0.765,-0.655C0.753,-0.653 0.742,-0.651 0.732,-0.648C0.723,-0.646 0.713,-0.641 0.705,-0.636C0.691,-0.628 0.678,-0.618 0.667,-0.606C0.657,-0.594 0.646,-0.58 0.635,-0.565C0.614,-0.535 0.592,-0.501 0.569,-0.465C0.546,-0.428 0.52,-0.388 0.493,-0.345C0.475,-0.317 0.464,-0.296 0.46,-0.281C0.456,-0.266 0.454,-0.241 0.454,-0.204L0.454,-0.106C0.454,-0.094 0.456,-0.084 0.461,-0.075C0.465,-0.066 0.473,-0.059 0.486,-0.054C0.491,-0.051 0.503,-0.048 0.521,-0.045C0.539,-0.041 0.552,-0.039 0.561,-0.038L0.561,-0L0.174,-0L0.174,-0.038C0.183,-0.039 0.197,-0.04 0.214,-0.042C0.231,-0.044 0.243,-0.046 0.25,-0.049C0.262,-0.054 0.27,-0.061 0.274,-0.07C0.279,-0.078 0.281,-0.089 0.281,-0.101L0.281,-0.223C0.281,-0.234 0.281,-0.243 0.28,-0.251C0.28,-0.26 0.279,-0.266 0.277,-0.272C0.275,-0.278 0.271,-0.286 0.265,-0.296C0.26,-0.305 0.252,-0.318 0.244,-0.333C0.219,-0.377 0.194,-0.419 0.171,-0.458C0.147,-0.497 0.125,-0.534 0.104,-0.569C0.093,-0.587 0.082,-0.601 0.071,-0.612C0.059,-0.623 0.048,-0.632 0.036,-0.639C0.027,-0.644 0.017,-0.647 0.004,-0.65C-0.008,-0.653 -0.02,-0.654 -0.03,-0.655L-0.03,-0.693L0.367,-0.693L0.367,-0.655C0.331,-0.654 0.306,-0.651 0.294,-0.647C0.281,-0.643 0.275,-0.638 0.275,-0.63C0.275,-0.627 0.277,-0.62 0.282,-0.609C0.286,-0.598 0.295,-0.582 0.307,-0.559C0.318,-0.538 0.334,-0.509 0.355,-0.472C0.377,-0.435 0.402,-0.391 0.432,-0.342C0.494,-0.439 0.536,-0.508 0.56,-0.547C0.583,-0.586 0.594,-0.609 0.594,-0.618C0.594,-0.629 0.587,-0.638 0.574,-0.644C0.56,-0.649 0.538,-0.653 0.508,-0.655L0.508,-0.693L0.765,-0.693L0.765,-0.655Z" style="fill:white;fill-opacity:0.75;fill-rule:nonzero;"/>
        </g>
        <g transform="matrix(41.3952,0,0,41.3952,528.843,94)">
            <path d="M0.324,0.019C0.282,0.019 0.242,0.014 0.206,0.003C0.169,-0.007 0.138,-0.02 0.113,-0.034L0.079,-0L0.038,-0L0.031,-0.25L0.073,-0.25C0.083,-0.227 0.095,-0.202 0.109,-0.175C0.124,-0.149 0.141,-0.125 0.16,-0.104C0.18,-0.082 0.202,-0.065 0.227,-0.051C0.251,-0.037 0.28,-0.03 0.313,-0.03C0.357,-0.03 0.391,-0.041 0.415,-0.063C0.438,-0.084 0.45,-0.112 0.45,-0.145C0.45,-0.172 0.44,-0.194 0.42,-0.213C0.4,-0.231 0.369,-0.247 0.327,-0.261C0.3,-0.269 0.275,-0.278 0.252,-0.285C0.229,-0.293 0.207,-0.3 0.187,-0.308C0.14,-0.327 0.106,-0.353 0.083,-0.388C0.061,-0.422 0.049,-0.461 0.049,-0.504C0.049,-0.531 0.055,-0.557 0.067,-0.582C0.079,-0.607 0.096,-0.629 0.118,-0.649C0.14,-0.667 0.167,-0.683 0.201,-0.694C0.234,-0.706 0.271,-0.712 0.31,-0.712C0.348,-0.712 0.384,-0.707 0.418,-0.696C0.451,-0.685 0.478,-0.674 0.497,-0.664L0.527,-0.693L0.569,-0.693L0.573,-0.457L0.531,-0.457C0.521,-0.482 0.51,-0.508 0.497,-0.535C0.484,-0.561 0.47,-0.583 0.455,-0.601C0.439,-0.62 0.421,-0.635 0.4,-0.646C0.379,-0.657 0.355,-0.663 0.327,-0.663C0.292,-0.663 0.263,-0.653 0.24,-0.633C0.218,-0.613 0.207,-0.589 0.207,-0.559C0.207,-0.532 0.217,-0.509 0.236,-0.491C0.255,-0.474 0.286,-0.458 0.327,-0.445C0.351,-0.437 0.375,-0.429 0.4,-0.421C0.425,-0.412 0.448,-0.405 0.467,-0.397C0.514,-0.379 0.55,-0.354 0.575,-0.321C0.6,-0.289 0.612,-0.25 0.612,-0.202C0.612,-0.172 0.605,-0.143 0.591,-0.115C0.577,-0.087 0.558,-0.064 0.534,-0.045C0.508,-0.024 0.478,-0.009 0.444,0.002C0.41,0.014 0.37,0.019 0.324,0.019Z" style="fill:white;fill-opacity:0.75;fill-rule:nonzero;"/>
        </g>
        <g transform="matrix(41.3952,0,0,41.3952,169,135.395)">
            <path d="M0.397,0.019C0.346,0.019 0.299,0.011 0.254,-0.006C0.21,-0.022 0.172,-0.046 0.139,-0.077C0.106,-0.108 0.081,-0.146 0.063,-0.191C0.044,-0.236 0.035,-0.286 0.035,-0.34C0.035,-0.394 0.044,-0.443 0.063,-0.489C0.081,-0.535 0.108,-0.575 0.142,-0.608C0.175,-0.641 0.215,-0.667 0.261,-0.685C0.308,-0.703 0.358,-0.712 0.411,-0.712C0.449,-0.712 0.484,-0.707 0.516,-0.698C0.547,-0.688 0.574,-0.678 0.596,-0.666L0.626,-0.693L0.668,-0.693L0.673,-0.44L0.63,-0.44C0.605,-0.517 0.576,-0.574 0.542,-0.61C0.508,-0.646 0.466,-0.665 0.417,-0.665C0.356,-0.665 0.31,-0.638 0.278,-0.584C0.246,-0.53 0.23,-0.454 0.23,-0.356C0.23,-0.301 0.235,-0.254 0.246,-0.215C0.257,-0.176 0.271,-0.145 0.289,-0.121C0.308,-0.096 0.33,-0.078 0.356,-0.067C0.382,-0.055 0.41,-0.049 0.441,-0.049C0.487,-0.049 0.527,-0.062 0.563,-0.086C0.598,-0.111 0.631,-0.149 0.66,-0.199L0.702,-0.173C0.688,-0.145 0.672,-0.119 0.654,-0.096C0.636,-0.074 0.616,-0.054 0.592,-0.038C0.567,-0.02 0.538,-0.006 0.507,0.004C0.476,0.014 0.439,0.019 0.397,0.019Z" style="fill:rgb(250,245,209);fill-opacity:0.55;fill-rule:nonzero;"/>
        </g>
        <g transform="matrix(41.3952,0,0,41.3952,198.611,135.395)">
            <path d="M0.527,-0.427C0.551,-0.404 0.569,-0.377 0.582,-0.346C0.595,-0.315 0.601,-0.281 0.601,-0.245C0.601,-0.208 0.595,-0.174 0.582,-0.142C0.57,-0.11 0.551,-0.083 0.527,-0.06C0.502,-0.036 0.471,-0.017 0.435,-0.004C0.4,0.009 0.359,0.016 0.313,0.016C0.273,0.016 0.237,0.01 0.203,-0.001C0.17,-0.013 0.14,-0.03 0.115,-0.053C0.09,-0.075 0.07,-0.101 0.056,-0.134C0.042,-0.166 0.035,-0.201 0.035,-0.241C0.035,-0.28 0.041,-0.315 0.053,-0.345C0.066,-0.376 0.085,-0.403 0.11,-0.427C0.134,-0.45 0.164,-0.467 0.199,-0.48C0.234,-0.492 0.274,-0.499 0.317,-0.499C0.363,-0.499 0.403,-0.492 0.438,-0.48C0.472,-0.467 0.502,-0.45 0.527,-0.427ZM0.402,-0.088C0.409,-0.107 0.414,-0.129 0.418,-0.155C0.421,-0.181 0.423,-0.211 0.423,-0.246C0.423,-0.268 0.421,-0.294 0.418,-0.324C0.415,-0.353 0.41,-0.376 0.403,-0.393C0.396,-0.414 0.385,-0.43 0.371,-0.441C0.357,-0.453 0.34,-0.459 0.318,-0.459C0.295,-0.459 0.277,-0.453 0.263,-0.44C0.249,-0.427 0.238,-0.411 0.231,-0.391C0.224,-0.372 0.219,-0.35 0.217,-0.325C0.214,-0.301 0.213,-0.275 0.213,-0.248C0.213,-0.212 0.214,-0.183 0.216,-0.159C0.219,-0.136 0.224,-0.113 0.233,-0.089C0.24,-0.069 0.251,-0.053 0.265,-0.042C0.279,-0.03 0.297,-0.024 0.318,-0.024C0.338,-0.024 0.355,-0.029 0.369,-0.04C0.383,-0.051 0.394,-0.067 0.402,-0.088Z" style="fill:rgb(250,245,209);fill-opacity:0.55;fill-rule:nonzero;"/>
        </g>
        <g transform="matrix(41.3952,0,0,41.3952,224.928,135.395)">
            <path d="M0.998,-0L0.708,-0L0.708,-0.036C0.715,-0.037 0.723,-0.037 0.73,-0.038C0.738,-0.039 0.744,-0.04 0.75,-0.043C0.757,-0.046 0.761,-0.052 0.763,-0.059C0.765,-0.067 0.766,-0.077 0.766,-0.089L0.766,-0.317C0.766,-0.35 0.76,-0.376 0.748,-0.392C0.736,-0.409 0.719,-0.417 0.697,-0.417C0.683,-0.417 0.671,-0.415 0.66,-0.411C0.649,-0.406 0.639,-0.401 0.629,-0.395C0.62,-0.388 0.613,-0.381 0.607,-0.374C0.602,-0.367 0.598,-0.361 0.594,-0.356L0.594,-0.094C0.594,-0.083 0.596,-0.073 0.598,-0.066C0.601,-0.058 0.606,-0.053 0.614,-0.048C0.619,-0.045 0.625,-0.043 0.631,-0.041C0.638,-0.038 0.645,-0.037 0.652,-0.036L0.652,-0L0.375,-0L0.375,-0.036C0.381,-0.036 0.389,-0.037 0.397,-0.038C0.406,-0.039 0.412,-0.041 0.417,-0.043C0.423,-0.047 0.428,-0.052 0.43,-0.059C0.432,-0.065 0.433,-0.076 0.433,-0.089L0.433,-0.317C0.433,-0.35 0.427,-0.376 0.415,-0.392C0.403,-0.409 0.386,-0.417 0.364,-0.417C0.35,-0.417 0.338,-0.415 0.327,-0.411C0.316,-0.406 0.306,-0.401 0.296,-0.395C0.287,-0.388 0.28,-0.381 0.274,-0.374C0.269,-0.367 0.265,-0.361 0.261,-0.356L0.261,-0.094C0.261,-0.083 0.263,-0.073 0.266,-0.066C0.269,-0.058 0.274,-0.053 0.281,-0.048C0.286,-0.045 0.292,-0.043 0.299,-0.041C0.306,-0.038 0.313,-0.037 0.32,-0.036L0.32,-0L0.028,-0L0.028,-0.036C0.036,-0.036 0.045,-0.037 0.053,-0.038C0.061,-0.039 0.068,-0.041 0.074,-0.043C0.084,-0.047 0.091,-0.052 0.095,-0.06C0.099,-0.067 0.101,-0.077 0.101,-0.089L0.101,-0.373C0.101,-0.383 0.098,-0.394 0.093,-0.404C0.087,-0.413 0.081,-0.421 0.073,-0.427C0.067,-0.431 0.059,-0.434 0.051,-0.437C0.042,-0.439 0.032,-0.441 0.021,-0.442L0.021,-0.478L0.254,-0.49L0.261,-0.483L0.261,-0.414L0.263,-0.414C0.272,-0.422 0.283,-0.432 0.296,-0.443C0.308,-0.454 0.32,-0.463 0.331,-0.47C0.343,-0.478 0.359,-0.485 0.377,-0.49C0.396,-0.495 0.417,-0.498 0.439,-0.498C0.477,-0.498 0.508,-0.49 0.532,-0.473C0.557,-0.457 0.575,-0.436 0.585,-0.409L0.59,-0.409C0.599,-0.418 0.611,-0.428 0.625,-0.44C0.638,-0.452 0.651,-0.462 0.662,-0.469C0.675,-0.477 0.691,-0.484 0.711,-0.489C0.73,-0.495 0.751,-0.498 0.774,-0.498C0.823,-0.498 0.861,-0.483 0.887,-0.454C0.914,-0.425 0.927,-0.384 0.927,-0.331L0.927,-0.093C0.927,-0.081 0.929,-0.072 0.933,-0.064C0.936,-0.057 0.943,-0.051 0.952,-0.047C0.957,-0.045 0.964,-0.043 0.971,-0.041C0.979,-0.038 0.988,-0.037 0.998,-0.036L0.998,-0Z" style="fill:rgb(250,245,209);fill-opacity:0.55;fill-rule:nonzero;"/>
        </g>
        <g transform="matrix(41.3952,0,0,41.3952,266.97,135.395)">
            <path d="M0.998,-0L0.708,-0L0.708,-0.036C0.715,-0.037 0.723,-0.037 0.73,-0.038C0.738,-0.039 0.744,-0.04 0.75,-0.043C0.757,-0.046 0.761,-0.052 0.763,-0.059C0.765,-0.067 0.766,-0.077 0.766,-0.089L0.766,-0.317C0.766,-0.35 0.76,-0.376 0.748,-0.392C0.736,-0.409 0.719,-0.417 0.697,-0.417C0.683,-0.417 0.671,-0.415 0.66,-0.411C0.649,-0.406 0.639,-0.401 0.629,-0.395C0.62,-0.388 0.613,-0.381 0.607,-0.374C0.602,-0.367 0.598,-0.361 0.594,-0.356L0.594,-0.094C0.594,-0.083 0.596,-0.073 0.598,-0.066C0.601,-0.058 0.606,-0.053 0.614,-0.048C0.619,-0.045 0.625,-0.043 0.631,-0.041C0.638,-0.038 0.645,-0.037 0.652,-0.036L0.652,-0L0.375,-0L0.375,-0.036C0.381,-0.036 0.389,-0.037 0.397,-0.038C0.406,-0.039 0.412,-0.041 0.417,-0.043C0.423,-0.047 0.428,-0.052 0.43,-0.059C0.432,-0.065 0.433,-0.076 0.433,-0.089L0.433,-0.317C0.433,-0.35 0.427,-0.376 0.415,-0.392C0.403,-0.409 0.386,-0.417 0.364,-0.417C0.35,-0.417 0.338,-0.415 0.327,-0.411C0.316,-0.406 0.306,-0.401 0.296,-0.395C0.287,-0.388 0.28,-0.381 0.274,-0.374C0.269,-0.367 0.265,-0.361 0.261,-0.356L0.261,-0.094C0.261,-0.083 0.263,-0.073 0.266,-0.066C0.269,-0.058 0.274,-0.053 0.281,-0.048C0.286,-0.045 0.292,-0.043 0.299,-0.041C0.306,-0.038 0.313,-0.037 0.32,-0.036L0.32,-0L0.028,-0L0.028,-0.036C0.036,-0.036 0.045,-0.037 0.053,-0.038C0.061,-0.039 0.068,-0.041 0.074,-0.043C0.084,-0.047 0.091,-0.052 0.095,-0.06C0.099,-0.067 0.101,-0.077 0.101,-0.089L0.101,-0.373C0.101,-0.383 0.098,-0.394 0.093,-0.404C0.087,-0.413 0.081,-0.421 0.073,-0.427C0.067,-0.431 0.059,-0.434 0.051,-0.437C0.042,-0.439 0.032,-0.441 0.021,-0.442L0.021,-0.478L0.254,-0.49L0.261,-0.483L0.261,-0.414L0.263,-0.414C0.272,-0.422 0.283,-0.432 0.296,-0.443C0.308,-0.454 0.32,-0.463 0.331,-0.47C0.343,-0.478 0.359,-0.485 0.377,-0.49C0.396,-0.495 0.417,-0.498 0.439,-0.498C0.477,-0.498 0.508,-0.49 0.532,-0.473C0.557,-0.457 0.575,-0.436 0.585,-0.409L0.59,-0.409C0.599,-0.418 0.611,-0.428 0.625,-0.44C0.638,-0.452 0.651,-0.462 0.662,-0.469C0.675,-0.477 0.691,-0.484 0.711,-0.489C0.73,-0.495 0.751,-0.498 0.774,-0.498C0.823,-0.498 0.861,-0.483 0.887,-0.454C0.914,-0.425 0.927,-0.384 0.927,-0.331L0.927,-0.093C0.927,-0.081 0.929,-0.072 0.933,-0.064C0.936,-0.057 0.943,-0.051 0.952,-0.047C0.957,-0.045 0.964,-0.043 0.971,-0.041C0.979,-0.038 0.988,-0.037 0.998,-0.036L0.998,-0Z" style="fill:rgb(250,245,209);fill-opacity:0.55;fill-rule:nonzero;"/>
        </g>
        <g transform="matrix(41.3952,0,0,41.3952,309.012,135.395)">
            <path d="M0.337,-0L0.028,-0L0.028,-0.036C0.037,-0.036 0.045,-0.037 0.053,-0.038C0.061,-0.039 0.068,-0.041 0.074,-0.043C0.085,-0.047 0.092,-0.052 0.096,-0.06C0.1,-0.067 0.103,-0.077 0.103,-0.089L0.103,-0.373C0.103,-0.384 0.1,-0.394 0.095,-0.403C0.09,-0.412 0.083,-0.419 0.075,-0.424C0.069,-0.428 0.06,-0.431 0.049,-0.435C0.037,-0.439 0.026,-0.441 0.016,-0.442L0.016,-0.478L0.255,-0.49L0.263,-0.483L0.263,-0.095C0.263,-0.084 0.265,-0.074 0.27,-0.066C0.275,-0.058 0.282,-0.052 0.291,-0.048C0.298,-0.045 0.305,-0.043 0.313,-0.041C0.32,-0.038 0.328,-0.037 0.337,-0.036L0.337,-0ZM0.266,-0.666C0.266,-0.641 0.256,-0.62 0.237,-0.603C0.218,-0.585 0.195,-0.577 0.169,-0.577C0.143,-0.577 0.12,-0.585 0.101,-0.603C0.082,-0.62 0.073,-0.641 0.073,-0.666C0.073,-0.691 0.082,-0.712 0.101,-0.729C0.12,-0.747 0.143,-0.756 0.169,-0.756C0.196,-0.756 0.218,-0.747 0.237,-0.729C0.256,-0.712 0.266,-0.691 0.266,-0.666Z" style="fill:rgb(250,245,209);fill-opacity:0.55;fill-rule:nonzero;"/>
        </g>
        <g transform="matrix(41.3952,0,0,41.3952,323.646,135.395)">
            <path d="M0.392,-0.022C0.371,-0.013 0.348,-0.005 0.325,0.002C0.301,0.01 0.272,0.013 0.238,0.013C0.187,0.013 0.149,0.001 0.125,-0.024C0.1,-0.049 0.088,-0.084 0.088,-0.13L0.088,-0.429L0,-0.429L0,-0.482L0.09,-0.482L0.09,-0.63L0.248,-0.63L0.248,-0.482L0.385,-0.482L0.385,-0.429L0.249,-0.429L0.249,-0.162C0.249,-0.124 0.254,-0.097 0.265,-0.081C0.276,-0.065 0.295,-0.057 0.322,-0.057C0.331,-0.057 0.343,-0.058 0.359,-0.059C0.374,-0.06 0.385,-0.062 0.392,-0.063L0.392,-0.022Z" style="fill:rgb(250,245,209);fill-opacity:0.55;fill-rule:nonzero;"/>
        </g>
        <g transform="matrix(41.3952,0,0,41.3952,340.099,135.395)">
            <path d="M0.392,-0.022C0.371,-0.013 0.348,-0.005 0.325,0.002C0.301,0.01 0.272,0.013 0.238,0.013C0.187,0.013 0.149,0.001 0.125,-0.024C0.1,-0.049 0.088,-0.084 0.088,-0.13L0.088,-0.429L0,-0.429L0,-0.482L0.09,-0.482L0.09,-0.63L0.248,-0.63L0.248,-0.482L0.385,-0.482L0.385,-0.429L0.249,-0.429L0.249,-0.162C0.249,-0.124 0.254,-0.097 0.265,-0.081C0.276,-0.065 0.295,-0.057 0.322,-0.057C0.331,-0.057 0.343,-0.058 0.359,-0.059C0.374,-0.06 0.385,-0.062 0.392,-0.063L0.392,-0.022Z" style="fill:rgb(250,245,209);fill-opacity:0.55;fill-rule:nonzero;"/>
        </g>
        <g transform="matrix(41.3952,0,0,41.3952,356.552,135.395)">
            <path d="M0.553,-0.117C0.542,-0.098 0.528,-0.081 0.512,-0.064C0.496,-0.048 0.478,-0.034 0.457,-0.022C0.435,-0.01 0.413,-0 0.391,0.006C0.369,0.012 0.343,0.016 0.314,0.016C0.266,0.016 0.224,0.009 0.189,-0.005C0.154,-0.019 0.125,-0.037 0.103,-0.06C0.08,-0.083 0.063,-0.11 0.052,-0.142C0.04,-0.173 0.035,-0.207 0.035,-0.244C0.035,-0.277 0.041,-0.309 0.053,-0.34C0.065,-0.37 0.083,-0.397 0.105,-0.421C0.127,-0.444 0.155,-0.463 0.189,-0.477C0.222,-0.491 0.26,-0.499 0.302,-0.499C0.347,-0.499 0.385,-0.493 0.414,-0.482C0.443,-0.471 0.468,-0.456 0.487,-0.436C0.505,-0.417 0.519,-0.396 0.527,-0.37C0.536,-0.345 0.54,-0.319 0.54,-0.291L0.54,-0.259L0.21,-0.259C0.21,-0.193 0.223,-0.142 0.249,-0.107C0.274,-0.072 0.315,-0.055 0.371,-0.055C0.402,-0.055 0.429,-0.063 0.454,-0.08C0.478,-0.097 0.499,-0.118 0.516,-0.144L0.553,-0.117ZM0.367,-0.302C0.367,-0.322 0.366,-0.342 0.364,-0.362C0.362,-0.383 0.358,-0.4 0.354,-0.413C0.348,-0.428 0.34,-0.439 0.331,-0.447C0.321,-0.455 0.309,-0.459 0.294,-0.459C0.269,-0.459 0.249,-0.446 0.234,-0.421C0.219,-0.396 0.211,-0.355 0.21,-0.3L0.367,-0.302Z" style="fill:rgb(250,245,209);fill-opacity:0.55;fill-rule:nonzero;"/>
        </g>
        <g transform="matrix(41.3952,0,0,41.3952,380.221,135.395)">
            <path d="M0.659,-0.01L0.418,0.004L0.411,-0.003L0.411,-0.048L0.408,-0.049C0.392,-0.032 0.37,-0.017 0.343,-0.004C0.316,0.009 0.289,0.016 0.261,0.016C0.195,0.016 0.141,-0.009 0.099,-0.058C0.056,-0.106 0.035,-0.17 0.035,-0.247C0.035,-0.316 0.058,-0.375 0.106,-0.424C0.154,-0.473 0.211,-0.498 0.279,-0.498C0.306,-0.498 0.331,-0.495 0.354,-0.489C0.377,-0.483 0.396,-0.475 0.41,-0.467L0.41,-0.627C0.41,-0.639 0.408,-0.65 0.403,-0.661C0.398,-0.671 0.391,-0.68 0.383,-0.686C0.373,-0.693 0.361,-0.698 0.345,-0.701C0.33,-0.704 0.315,-0.706 0.3,-0.708L0.3,-0.743L0.564,-0.756L0.571,-0.748L0.571,-0.108C0.571,-0.096 0.573,-0.085 0.577,-0.077C0.581,-0.068 0.588,-0.062 0.597,-0.057C0.604,-0.053 0.614,-0.05 0.627,-0.049C0.64,-0.047 0.651,-0.046 0.659,-0.046L0.659,-0.01ZM0.41,-0.097L0.41,-0.373C0.408,-0.381 0.405,-0.389 0.401,-0.398C0.397,-0.407 0.391,-0.416 0.384,-0.424C0.377,-0.431 0.369,-0.437 0.358,-0.442C0.347,-0.447 0.335,-0.45 0.321,-0.45C0.289,-0.45 0.262,-0.431 0.241,-0.395C0.22,-0.358 0.21,-0.306 0.21,-0.239C0.21,-0.212 0.212,-0.189 0.216,-0.168C0.219,-0.147 0.226,-0.128 0.235,-0.11C0.245,-0.093 0.257,-0.08 0.272,-0.07C0.286,-0.06 0.304,-0.055 0.325,-0.055C0.345,-0.055 0.361,-0.059 0.374,-0.067C0.387,-0.074 0.399,-0.084 0.41,-0.097Z" style="fill:rgb(250,245,209);fill-opacity:0.55;fill-rule:nonzero;"/>
        </g>
        <g transform="matrix(41.3952,0,0,41.3952,418.18,135.395)">
            <path d="M0.392,-0.022C0.371,-0.013 0.348,-0.005 0.325,0.002C0.301,0.01 0.272,0.013 0.238,0.013C0.187,0.013 0.149,0.001 0.125,-0.024C0.1,-0.049 0.088,-0.084 0.088,-0.13L0.088,-0.429L0,-0.429L0,-0.482L0.09,-0.482L0.09,-0.63L0.248,-0.63L0.248,-0.482L0.385,-0.482L0.385,-0.429L0.249,-0.429L0.249,-0.162C0.249,-0.124 0.254,-0.097 0.265,-0.081C0.276,-0.065 0.295,-0.057 0.322,-0.057C0.331,-0.057 0.343,-0.058 0.359,-0.059C0.374,-0.06 0.385,-0.062 0.392,-0.063L0.392,-0.022Z" style="fill:rgb(250,245,209);fill-opacity:0.55;fill-rule:nonzero;"/>
        </g>
        <g transform="matrix(41.3952,0,0,41.3952,434.633,135.395)">
            <path d="M0.527,-0.427C0.551,-0.404 0.569,-0.377 0.582,-0.346C0.595,-0.315 0.601,-0.281 0.601,-0.245C0.601,-0.208 0.595,-0.174 0.582,-0.142C0.57,-0.11 0.551,-0.083 0.527,-0.06C0.502,-0.036 0.471,-0.017 0.435,-0.004C0.4,0.009 0.359,0.016 0.313,0.016C0.273,0.016 0.237,0.01 0.203,-0.001C0.17,-0.013 0.14,-0.03 0.115,-0.053C0.09,-0.075 0.07,-0.101 0.056,-0.134C0.042,-0.166 0.035,-0.201 0.035,-0.241C0.035,-0.28 0.041,-0.315 0.053,-0.345C0.066,-0.376 0.085,-0.403 0.11,-0.427C0.134,-0.45 0.164,-0.467 0.199,-0.48C0.234,-0.492 0.274,-0.499 0.317,-0.499C0.363,-0.499 0.403,-0.492 0.438,-0.48C0.472,-0.467 0.502,-0.45 0.527,-0.427ZM0.402,-0.088C0.409,-0.107 0.414,-0.129 0.418,-0.155C0.421,-0.181 0.423,-0.211 0.423,-0.246C0.423,-0.268 0.421,-0.294 0.418,-0.324C0.415,-0.353 0.41,-0.376 0.403,-0.393C0.396,-0.414 0.385,-0.43 0.371,-0.441C0.357,-0.453 0.34,-0.459 0.318,-0.459C0.295,-0.459 0.277,-0.453 0.263,-0.44C0.249,-0.427 0.238,-0.411 0.231,-0.391C0.224,-0.372 0.219,-0.35 0.217,-0.325C0.214,-0.301 0.213,-0.275 0.213,-0.248C0.213,-0.212 0.214,-0.183 0.216,-0.159C0.219,-0.136 0.224,-0.113 0.233,-0.089C0.24,-0.069 0.251,-0.053 0.265,-0.042C0.279,-0.03 0.297,-0.024 0.318,-0.024C0.338,-0.024 0.355,-0.029 0.369,-0.04C0.383,-0.051 0.394,-0.067 0.402,-0.088Z" style="fill:rgb(250,245,209);fill-opacity:0.55;fill-rule:nonzero;"/>
        </g>
        <g transform="matrix(41.3952,0,0,41.3952,169,176.79)">
            <path d="M0.392,-0.022C0.371,-0.013 0.348,-0.005 0.325,0.002C0.301,0.01 0.272,0.013 0.238,0.013C0.187,0.013 0.149,0.001 0.125,-0.024C0.1,-0.049 0.088,-0.084 0.088,-0.13L0.088,-0.429L0,-0.429L0,-0.482L0.09,-0.482L0.09,-0.63L0.248,-0.63L0.248,-0.482L0.385,-0.482L0.385,-0.429L0.249,-0.429L0.249,-0.162C0.249,-0.124 0.254,-0.097 0.265,-0.081C0.276,-0.065 0.295,-0.057 0.322,-0.057C0.331,-0.057 0.343,-0.058 0.359,-0.059C0.374,-0.06 0.385,-0.062 0.392,-0.063L0.392,-0.022Z" style="fill:rgb(250,245,209);fill-opacity:0.55;fill-rule:nonzero;"/>
        </g>
        <g transform="matrix(41.3952,0,0,41.3952,185.453,176.79)">
            <path d="M0.663,-0L0.37,-0L0.37,-0.036C0.376,-0.036 0.384,-0.037 0.393,-0.038C0.401,-0.039 0.408,-0.041 0.412,-0.043C0.419,-0.047 0.424,-0.052 0.427,-0.059C0.429,-0.065 0.431,-0.076 0.431,-0.089L0.431,-0.317C0.431,-0.351 0.424,-0.376 0.412,-0.393C0.399,-0.409 0.382,-0.417 0.358,-0.417C0.345,-0.417 0.333,-0.416 0.322,-0.412C0.311,-0.408 0.3,-0.402 0.289,-0.395C0.28,-0.388 0.272,-0.381 0.266,-0.375C0.261,-0.368 0.256,-0.362 0.252,-0.356L0.252,-0.094C0.252,-0.082 0.253,-0.073 0.256,-0.066C0.259,-0.059 0.265,-0.053 0.273,-0.048C0.278,-0.045 0.284,-0.043 0.292,-0.041C0.3,-0.038 0.308,-0.037 0.315,-0.036L0.315,-0L0.018,-0L0.018,-0.036C0.026,-0.036 0.034,-0.037 0.042,-0.038C0.05,-0.039 0.058,-0.041 0.064,-0.043C0.074,-0.047 0.081,-0.052 0.085,-0.06C0.089,-0.067 0.091,-0.077 0.091,-0.089L0.091,-0.633C0.091,-0.644 0.088,-0.655 0.083,-0.667C0.079,-0.678 0.072,-0.687 0.063,-0.693C0.056,-0.697 0.047,-0.7 0.035,-0.703C0.022,-0.705 0.011,-0.707 0.001,-0.708L0.001,-0.743L0.245,-0.756L0.252,-0.748L0.252,-0.412L0.254,-0.412C0.266,-0.423 0.277,-0.433 0.287,-0.442C0.297,-0.451 0.309,-0.46 0.324,-0.469C0.336,-0.477 0.351,-0.484 0.371,-0.489C0.39,-0.495 0.411,-0.498 0.433,-0.498C0.486,-0.498 0.526,-0.482 0.552,-0.452C0.579,-0.422 0.592,-0.382 0.592,-0.333L0.592,-0.093C0.592,-0.081 0.594,-0.072 0.597,-0.064C0.601,-0.057 0.607,-0.052 0.617,-0.047C0.623,-0.045 0.63,-0.042 0.637,-0.041C0.644,-0.039 0.653,-0.037 0.663,-0.036L0.663,-0Z" style="fill:rgb(250,245,209);fill-opacity:0.55;fill-rule:nonzero;"/>
        </g>
        <g transform="matrix(41.3952,0,0,41.3952,213.589,176.79)">
            <path d="M0.553,-0.117C0.542,-0.098 0.528,-0.081 0.512,-0.064C0.496,-0.048 0.478,-0.034 0.457,-0.022C0.435,-0.01 0.413,-0 0.391,0.006C0.369,0.012 0.343,0.016 0.314,0.016C0.266,0.016 0.224,0.009 0.189,-0.005C0.154,-0.019 0.125,-0.037 0.103,-0.06C0.08,-0.083 0.063,-0.11 0.052,-0.142C0.04,-0.173 0.035,-0.207 0.035,-0.244C0.035,-0.277 0.041,-0.309 0.053,-0.34C0.065,-0.37 0.083,-0.397 0.105,-0.421C0.127,-0.444 0.155,-0.463 0.189,-0.477C0.222,-0.491 0.26,-0.499 0.302,-0.499C0.347,-0.499 0.385,-0.493 0.414,-0.482C0.443,-0.471 0.468,-0.456 0.487,-0.436C0.505,-0.417 0.519,-0.396 0.527,-0.37C0.536,-0.345 0.54,-0.319 0.54,-0.291L0.54,-0.259L0.21,-0.259C0.21,-0.193 0.223,-0.142 0.249,-0.107C0.274,-0.072 0.315,-0.055 0.371,-0.055C0.402,-0.055 0.429,-0.063 0.454,-0.08C0.478,-0.097 0.499,-0.118 0.516,-0.144L0.553,-0.117ZM0.367,-0.302C0.367,-0.322 0.366,-0.342 0.364,-0.362C0.362,-0.383 0.358,-0.4 0.354,-0.413C0.348,-0.428 0.34,-0.439 0.331,-0.447C0.321,-0.455 0.309,-0.459 0.294,-0.459C0.269,-0.459 0.249,-0.446 0.234,-0.421C0.219,-0.396 0.211,-0.355 0.21,-0.3L0.367,-0.302Z" style="fill:rgb(250,245,209);fill-opacity:0.55;fill-rule:nonzero;"/>
        </g>
        <g transform="matrix(41.3952,0,0,41.3952,247.768,176.79)">
            <path d="M0.786,-0L0.408,-0L0.408,-0.038C0.426,-0.039 0.446,-0.043 0.47,-0.048C0.494,-0.053 0.506,-0.059 0.506,-0.066C0.506,-0.069 0.505,-0.072 0.505,-0.075C0.504,-0.078 0.503,-0.083 0.501,-0.088L0.442,-0.232L0.202,-0.232C0.197,-0.219 0.191,-0.203 0.184,-0.185C0.178,-0.167 0.172,-0.151 0.167,-0.137C0.161,-0.119 0.157,-0.106 0.156,-0.098C0.155,-0.09 0.154,-0.084 0.154,-0.081C0.154,-0.07 0.162,-0.061 0.178,-0.054C0.194,-0.047 0.22,-0.041 0.257,-0.038L0.257,-0L-0.027,-0L-0.027,-0.038C-0.017,-0.039 -0.004,-0.04 0.009,-0.043C0.023,-0.046 0.033,-0.05 0.041,-0.055C0.054,-0.063 0.066,-0.072 0.075,-0.083C0.084,-0.095 0.092,-0.108 0.098,-0.124C0.136,-0.215 0.174,-0.307 0.212,-0.399C0.25,-0.491 0.292,-0.592 0.337,-0.703L0.435,-0.703C0.499,-0.546 0.549,-0.422 0.585,-0.331C0.621,-0.239 0.652,-0.164 0.677,-0.104C0.681,-0.094 0.687,-0.085 0.693,-0.077C0.7,-0.069 0.709,-0.062 0.721,-0.055C0.73,-0.049 0.741,-0.046 0.753,-0.043C0.765,-0.04 0.776,-0.039 0.786,-0.038L0.786,-0ZM0.422,-0.28L0.321,-0.531L0.222,-0.28L0.422,-0.28Z" style="fill:rgb(250,245,209);fill-opacity:0.55;fill-rule:nonzero;"/>
        </g>
        <g transform="matrix(41.3952,0,0,41.3952,279.158,176.79)">
            <path d="M0.623,-0.238C0.623,-0.169 0.6,-0.11 0.554,-0.061C0.508,-0.012 0.45,0.013 0.38,0.013C0.349,0.013 0.324,0.01 0.304,0.003C0.285,-0.003 0.269,-0.011 0.256,-0.02L0.252,-0.02L0.252,0.117C0.252,0.129 0.254,0.139 0.26,0.147C0.265,0.155 0.272,0.162 0.281,0.166C0.29,0.169 0.302,0.172 0.318,0.175C0.334,0.178 0.348,0.18 0.358,0.181L0.358,0.217L0.005,0.217L0.005,0.181C0.014,0.18 0.024,0.179 0.036,0.177C0.049,0.175 0.058,0.173 0.064,0.171C0.074,0.168 0.081,0.162 0.085,0.153C0.089,0.144 0.091,0.135 0.091,0.124L0.091,-0.376C0.09,-0.387 0.087,-0.396 0.083,-0.404C0.079,-0.412 0.073,-0.42 0.064,-0.426C0.057,-0.43 0.049,-0.434 0.038,-0.436C0.027,-0.439 0.017,-0.441 0.006,-0.442L0.006,-0.478L0.245,-0.49L0.252,-0.484L0.252,-0.43L0.256,-0.429C0.277,-0.451 0.301,-0.467 0.327,-0.479C0.353,-0.492 0.379,-0.498 0.405,-0.498C0.472,-0.498 0.526,-0.474 0.565,-0.426C0.604,-0.378 0.623,-0.316 0.623,-0.238ZM0.448,-0.236C0.448,-0.26 0.446,-0.284 0.442,-0.306C0.439,-0.328 0.432,-0.348 0.423,-0.366C0.415,-0.383 0.403,-0.397 0.389,-0.408C0.374,-0.418 0.357,-0.423 0.336,-0.423C0.315,-0.423 0.298,-0.42 0.285,-0.412C0.272,-0.405 0.261,-0.396 0.252,-0.384L0.252,-0.107C0.254,-0.1 0.258,-0.092 0.263,-0.082C0.269,-0.072 0.274,-0.063 0.28,-0.057C0.288,-0.048 0.297,-0.042 0.307,-0.038C0.318,-0.033 0.329,-0.031 0.342,-0.031C0.374,-0.031 0.399,-0.049 0.419,-0.083C0.438,-0.118 0.448,-0.169 0.448,-0.236Z" style="fill:rgb(250,245,209);fill-opacity:0.55;fill-rule:nonzero;"/>
        </g>
        <g transform="matrix(41.3952,0,0,41.3952,306.384,176.79)">
            <path d="M0.623,-0.238C0.623,-0.169 0.6,-0.11 0.554,-0.061C0.508,-0.012 0.45,0.013 0.38,0.013C0.349,0.013 0.324,0.01 0.304,0.003C0.285,-0.003 0.269,-0.011 0.256,-0.02L0.252,-0.02L0.252,0.117C0.252,0.129 0.254,0.139 0.26,0.147C0.265,0.155 0.272,0.162 0.281,0.166C0.29,0.169 0.302,0.172 0.318,0.175C0.334,0.178 0.348,0.18 0.358,0.181L0.358,0.217L0.005,0.217L0.005,0.181C0.014,0.18 0.024,0.179 0.036,0.177C0.049,0.175 0.058,0.173 0.064,0.171C0.074,0.168 0.081,0.162 0.085,0.153C0.089,0.144 0.091,0.135 0.091,0.124L0.091,-0.376C0.09,-0.387 0.087,-0.396 0.083,-0.404C0.079,-0.412 0.073,-0.42 0.064,-0.426C0.057,-0.43 0.049,-0.434 0.038,-0.436C0.027,-0.439 0.017,-0.441 0.006,-0.442L0.006,-0.478L0.245,-0.49L0.252,-0.484L0.252,-0.43L0.256,-0.429C0.277,-0.451 0.301,-0.467 0.327,-0.479C0.353,-0.492 0.379,-0.498 0.405,-0.498C0.472,-0.498 0.526,-0.474 0.565,-0.426C0.604,-0.378 0.623,-0.316 0.623,-0.238ZM0.448,-0.236C0.448,-0.26 0.446,-0.284 0.442,-0.306C0.439,-0.328 0.432,-0.348 0.423,-0.366C0.415,-0.383 0.403,-0.397 0.389,-0.408C0.374,-0.418 0.357,-0.423 0.336,-0.423C0.315,-0.423 0.298,-0.42 0.285,-0.412C0.272,-0.405 0.261,-0.396 0.252,-0.384L0.252,-0.107C0.254,-0.1 0.258,-0.092 0.263,-0.082C0.269,-0.072 0.274,-0.063 0.28,-0.057C0.288,-0.048 0.297,-0.042 0.307,-0.038C0.318,-0.033 0.329,-0.031 0.342,-0.031C0.374,-0.031 0.399,-0.049 0.419,-0.083C0.438,-0.118 0.448,-0.169 0.448,-0.236Z" style="fill:rgb(250,245,209);fill-opacity:0.55;fill-rule:nonzero;"/>
        </g>
        <g transform="matrix(41.3952,0,0,41.3952,333.611,176.79)">
            <path d="M0.586,-0.01C0.572,-0.004 0.555,0.002 0.536,0.007C0.516,0.012 0.496,0.015 0.474,0.015C0.434,0.015 0.405,0.009 0.386,-0.003C0.367,-0.015 0.354,-0.032 0.347,-0.054L0.344,-0.054C0.333,-0.043 0.322,-0.034 0.312,-0.026C0.302,-0.018 0.291,-0.011 0.279,-0.006C0.264,0.001 0.249,0.007 0.235,0.01C0.221,0.014 0.201,0.016 0.176,0.016C0.138,0.016 0.105,0.004 0.079,-0.018C0.052,-0.04 0.039,-0.07 0.039,-0.107C0.039,-0.128 0.042,-0.146 0.047,-0.161C0.053,-0.175 0.062,-0.189 0.072,-0.2C0.082,-0.21 0.093,-0.219 0.106,-0.226C0.119,-0.233 0.133,-0.239 0.149,-0.245C0.178,-0.256 0.213,-0.267 0.254,-0.279C0.295,-0.29 0.325,-0.3 0.344,-0.31L0.344,-0.356C0.344,-0.365 0.344,-0.375 0.342,-0.389C0.341,-0.402 0.338,-0.413 0.334,-0.422C0.329,-0.433 0.322,-0.442 0.312,-0.449C0.303,-0.456 0.29,-0.459 0.274,-0.459C0.26,-0.459 0.248,-0.457 0.238,-0.453C0.228,-0.449 0.221,-0.445 0.215,-0.441C0.216,-0.434 0.219,-0.424 0.223,-0.411C0.228,-0.398 0.23,-0.385 0.23,-0.373C0.23,-0.367 0.229,-0.36 0.226,-0.352C0.223,-0.344 0.218,-0.337 0.213,-0.332C0.205,-0.326 0.197,-0.32 0.188,-0.317C0.178,-0.313 0.164,-0.312 0.145,-0.312C0.117,-0.312 0.097,-0.318 0.083,-0.331C0.069,-0.344 0.062,-0.362 0.062,-0.383C0.062,-0.401 0.069,-0.417 0.083,-0.432C0.098,-0.446 0.115,-0.458 0.136,-0.468C0.157,-0.478 0.18,-0.485 0.207,-0.49C0.234,-0.496 0.258,-0.499 0.281,-0.499C0.313,-0.499 0.342,-0.497 0.368,-0.493C0.395,-0.489 0.418,-0.481 0.439,-0.47C0.46,-0.458 0.476,-0.442 0.488,-0.42C0.499,-0.399 0.505,-0.37 0.505,-0.335C0.505,-0.299 0.505,-0.255 0.503,-0.205C0.502,-0.154 0.501,-0.121 0.501,-0.105C0.501,-0.09 0.503,-0.079 0.508,-0.07C0.512,-0.062 0.519,-0.056 0.528,-0.051C0.533,-0.049 0.542,-0.047 0.554,-0.047C0.566,-0.046 0.577,-0.046 0.586,-0.046L0.586,-0.01ZM0.344,-0.265C0.326,-0.258 0.308,-0.251 0.29,-0.243C0.272,-0.235 0.257,-0.227 0.246,-0.218C0.234,-0.209 0.224,-0.197 0.217,-0.183C0.21,-0.169 0.207,-0.152 0.207,-0.133C0.207,-0.108 0.213,-0.089 0.224,-0.078C0.236,-0.066 0.25,-0.061 0.267,-0.061C0.285,-0.061 0.3,-0.064 0.312,-0.072C0.323,-0.079 0.333,-0.088 0.342,-0.099L0.344,-0.265Z" style="fill:rgb(250,245,209);fill-opacity:0.55;fill-rule:nonzero;"/>
        </g>
        <g transform="matrix(41.3952,0,0,41.3952,358.27,176.79)">
            <path d="M0.515,-0.395C0.515,-0.37 0.507,-0.349 0.492,-0.33C0.476,-0.311 0.456,-0.302 0.431,-0.302C0.407,-0.302 0.387,-0.308 0.371,-0.32C0.354,-0.332 0.346,-0.349 0.346,-0.373C0.346,-0.384 0.347,-0.393 0.349,-0.399C0.35,-0.406 0.352,-0.411 0.353,-0.417C0.338,-0.416 0.322,-0.411 0.306,-0.402C0.289,-0.392 0.274,-0.379 0.262,-0.363L0.262,-0.095C0.262,-0.083 0.264,-0.074 0.267,-0.066C0.271,-0.059 0.277,-0.053 0.285,-0.049C0.292,-0.045 0.304,-0.042 0.32,-0.04C0.336,-0.037 0.348,-0.036 0.355,-0.036L0.355,-0L0.028,-0L0.028,-0.036C0.036,-0.036 0.045,-0.037 0.053,-0.038C0.061,-0.039 0.068,-0.041 0.074,-0.043C0.085,-0.047 0.092,-0.052 0.096,-0.06C0.1,-0.067 0.102,-0.077 0.102,-0.089L0.102,-0.373C0.102,-0.385 0.099,-0.395 0.093,-0.405C0.088,-0.414 0.081,-0.421 0.073,-0.427C0.067,-0.431 0.06,-0.434 0.051,-0.437C0.042,-0.439 0.032,-0.441 0.021,-0.442L0.021,-0.478L0.254,-0.49L0.262,-0.483L0.262,-0.412L0.264,-0.412C0.286,-0.438 0.31,-0.459 0.335,-0.473C0.36,-0.488 0.387,-0.496 0.414,-0.496C0.444,-0.496 0.469,-0.486 0.487,-0.468C0.505,-0.449 0.515,-0.425 0.515,-0.395Z" style="fill:rgb(250,245,209);fill-opacity:0.55;fill-rule:nonzero;"/>
        </g>
        <g transform="matrix(41.3952,0,0,41.3952,379.796,176.79)">
            <path d="M0.553,-0.117C0.542,-0.098 0.528,-0.081 0.512,-0.064C0.496,-0.048 0.478,-0.034 0.457,-0.022C0.435,-0.01 0.413,-0 0.391,0.006C0.369,0.012 0.343,0.016 0.314,0.016C0.266,0.016 0.224,0.009 0.189,-0.005C0.154,-0.019 0.125,-0.037 0.103,-0.06C0.08,-0.083 0.063,-0.11 0.052,-0.142C0.04,-0.173 0.035,-0.207 0.035,-0.244C0.035,-0.277 0.041,-0.309 0.053,-0.34C0.065,-0.37 0.083,-0.397 0.105,-0.421C0.127,-0.444 0.155,-0.463 0.189,-0.477C0.222,-0.491 0.26,-0.499 0.302,-0.499C0.347,-0.499 0.385,-0.493 0.414,-0.482C0.443,-0.471 0.468,-0.456 0.487,-0.436C0.505,-0.417 0.519,-0.396 0.527,-0.37C0.536,-0.345 0.54,-0.319 0.54,-0.291L0.54,-0.259L0.21,-0.259C0.21,-0.193 0.223,-0.142 0.249,-0.107C0.274,-0.072 0.315,-0.055 0.371,-0.055C0.402,-0.055 0.429,-0.063 0.454,-0.08C0.478,-0.097 0.499,-0.118 0.516,-0.144L0.553,-0.117ZM0.367,-0.302C0.367,-0.322 0.366,-0.342 0.364,-0.362C0.362,-0.383 0.358,-0.4 0.354,-0.413C0.348,-0.428 0.34,-0.439 0.331,-0.447C0.321,-0.455 0.309,-0.459 0.294,-0.459C0.269,-0.459 0.249,-0.446 0.234,-0.421C0.219,-0.396 0.211,-0.355 0.21,-0.3L0.367,-0.302Z" style="fill:rgb(250,245,209);fill-opacity:0.55;fill-rule:nonzero;"/>
        </g>
        <g transform="matrix(41.3952,0,0,41.3952,403.465,176.79)">
            <path d="M0.327,-0L0.019,-0L0.019,-0.036C0.028,-0.036 0.036,-0.037 0.044,-0.038C0.052,-0.039 0.059,-0.041 0.065,-0.043C0.076,-0.047 0.083,-0.052 0.087,-0.06C0.09,-0.067 0.092,-0.077 0.092,-0.089L0.092,-0.63C0.092,-0.642 0.09,-0.654 0.085,-0.664C0.08,-0.675 0.073,-0.683 0.064,-0.688C0.058,-0.693 0.048,-0.697 0.035,-0.701C0.022,-0.705 0.01,-0.707 0,-0.708L0,-0.743L0.246,-0.756L0.253,-0.748L0.253,-0.095C0.253,-0.083 0.256,-0.073 0.26,-0.066C0.264,-0.058 0.271,-0.053 0.28,-0.048C0.287,-0.045 0.294,-0.043 0.301,-0.041C0.308,-0.038 0.317,-0.037 0.327,-0.036L0.327,-0Z" style="fill:rgb(250,245,209);fill-opacity:0.55;fill-rule:nonzero;"/>
        </g>
        <g transform="matrix(41.3952,0,0,41.3952,428.225,176.79)">
            <path d="M0.415,-0L0.031,-0L0.031,-0.038C0.04,-0.039 0.052,-0.04 0.07,-0.041C0.087,-0.042 0.098,-0.044 0.105,-0.047C0.117,-0.052 0.125,-0.058 0.13,-0.066C0.134,-0.074 0.136,-0.084 0.136,-0.097L0.136,-0.588C0.136,-0.599 0.134,-0.609 0.13,-0.617C0.126,-0.626 0.117,-0.632 0.105,-0.638C0.097,-0.641 0.086,-0.644 0.07,-0.648C0.055,-0.651 0.042,-0.653 0.031,-0.655L0.031,-0.693L0.415,-0.693L0.415,-0.655C0.405,-0.654 0.393,-0.652 0.378,-0.651C0.364,-0.649 0.351,-0.646 0.341,-0.643C0.329,-0.639 0.32,-0.632 0.316,-0.623C0.312,-0.614 0.31,-0.604 0.31,-0.593L0.31,-0.102C0.31,-0.09 0.312,-0.08 0.316,-0.072C0.321,-0.064 0.329,-0.057 0.341,-0.052C0.348,-0.049 0.359,-0.046 0.375,-0.043C0.391,-0.04 0.404,-0.039 0.415,-0.038L0.415,-0Z" style="fill:rgb(250,245,209);fill-opacity:0.55;fill-rule:nonzero;"/>
        </g>
        <g transform="matrix(41.3952,0,0,41.3952,446.679,176.79)">
            <path d="M0.673,-0L0.379,-0L0.379,-0.036C0.386,-0.036 0.393,-0.037 0.402,-0.038C0.411,-0.039 0.417,-0.041 0.422,-0.043C0.429,-0.047 0.434,-0.052 0.437,-0.059C0.439,-0.065 0.441,-0.076 0.441,-0.089L0.441,-0.317C0.441,-0.351 0.435,-0.376 0.423,-0.392C0.41,-0.409 0.392,-0.417 0.368,-0.417C0.355,-0.417 0.343,-0.416 0.332,-0.412C0.321,-0.408 0.31,-0.402 0.299,-0.395C0.289,-0.388 0.282,-0.381 0.276,-0.375C0.27,-0.368 0.266,-0.362 0.262,-0.356L0.262,-0.094C0.262,-0.083 0.263,-0.073 0.267,-0.066C0.27,-0.058 0.275,-0.052 0.283,-0.048C0.288,-0.045 0.294,-0.043 0.302,-0.041C0.31,-0.038 0.318,-0.037 0.325,-0.036L0.325,-0L0.028,-0L0.028,-0.036C0.036,-0.036 0.045,-0.037 0.053,-0.038C0.061,-0.039 0.068,-0.041 0.074,-0.043C0.085,-0.047 0.092,-0.052 0.096,-0.06C0.1,-0.067 0.102,-0.077 0.102,-0.089L0.102,-0.373C0.102,-0.383 0.099,-0.393 0.094,-0.403C0.089,-0.413 0.082,-0.421 0.073,-0.427C0.067,-0.431 0.06,-0.434 0.051,-0.437C0.042,-0.439 0.032,-0.441 0.021,-0.442L0.021,-0.478L0.254,-0.49L0.262,-0.483L0.262,-0.412L0.264,-0.412C0.273,-0.42 0.284,-0.43 0.297,-0.441C0.31,-0.453 0.322,-0.462 0.333,-0.469C0.345,-0.477 0.361,-0.484 0.38,-0.489C0.4,-0.495 0.421,-0.498 0.443,-0.498C0.496,-0.498 0.536,-0.483 0.562,-0.452C0.589,-0.422 0.602,-0.382 0.602,-0.333L0.602,-0.093C0.602,-0.081 0.604,-0.072 0.607,-0.064C0.611,-0.057 0.618,-0.052 0.627,-0.047C0.633,-0.045 0.639,-0.043 0.647,-0.041C0.654,-0.038 0.663,-0.037 0.673,-0.036L0.673,-0Z" style="fill:rgb(250,245,209);fill-opacity:0.55;fill-rule:nonzero;"/>
        </g>
        <g transform="matrix(41.3952,0,0,41.3952,475.24,176.79)">
            <path d="M0.659,-0.01L0.418,0.004L0.411,-0.003L0.411,-0.048L0.408,-0.049C0.392,-0.032 0.37,-0.017 0.343,-0.004C0.316,0.009 0.289,0.016 0.261,0.016C0.195,0.016 0.141,-0.009 0.099,-0.058C0.056,-0.106 0.035,-0.17 0.035,-0.247C0.035,-0.316 0.058,-0.375 0.106,-0.424C0.154,-0.473 0.211,-0.498 0.279,-0.498C0.306,-0.498 0.331,-0.495 0.354,-0.489C0.377,-0.483 0.396,-0.475 0.41,-0.467L0.41,-0.627C0.41,-0.639 0.408,-0.65 0.403,-0.661C0.398,-0.671 0.391,-0.68 0.383,-0.686C0.373,-0.693 0.361,-0.698 0.345,-0.701C0.33,-0.704 0.315,-0.706 0.3,-0.708L0.3,-0.743L0.564,-0.756L0.571,-0.748L0.571,-0.108C0.571,-0.096 0.573,-0.085 0.577,-0.077C0.581,-0.068 0.588,-0.062 0.597,-0.057C0.604,-0.053 0.614,-0.05 0.627,-0.049C0.64,-0.047 0.651,-0.046 0.659,-0.046L0.659,-0.01ZM0.41,-0.097L0.41,-0.373C0.408,-0.381 0.405,-0.389 0.401,-0.398C0.397,-0.407 0.391,-0.416 0.384,-0.424C0.377,-0.431 0.369,-0.437 0.358,-0.442C0.347,-0.447 0.335,-0.45 0.321,-0.45C0.289,-0.45 0.262,-0.431 0.241,-0.395C0.22,-0.358 0.21,-0.306 0.21,-0.239C0.21,-0.212 0.212,-0.189 0.216,-0.168C0.219,-0.147 0.226,-0.128 0.235,-0.11C0.245,-0.093 0.257,-0.08 0.272,-0.07C0.286,-0.06 0.304,-0.055 0.325,-0.055C0.345,-0.055 0.361,-0.059 0.374,-0.067C0.387,-0.074 0.399,-0.084 0.41,-0.097Z" style="fill:rgb(250,245,209);fill-opacity:0.55;fill-rule:nonzero;"/>
        </g>
        <g transform="matrix(41.3952,0,0,41.3952,502.688,176.79)">
            <path d="M0.665,-0.01L0.432,0.004L0.425,-0.003L0.425,-0.067L0.422,-0.067C0.411,-0.057 0.4,-0.047 0.389,-0.037C0.379,-0.028 0.366,-0.019 0.352,-0.011C0.335,-0.002 0.319,0.004 0.305,0.008C0.29,0.013 0.268,0.015 0.24,0.015C0.191,0.015 0.153,-0 0.127,-0.03C0.101,-0.059 0.088,-0.101 0.088,-0.155L0.088,-0.375C0.088,-0.388 0.085,-0.398 0.081,-0.406C0.076,-0.414 0.069,-0.421 0.061,-0.427C0.055,-0.432 0.046,-0.436 0.036,-0.438C0.026,-0.44 0.016,-0.441 0.008,-0.442L0.008,-0.478L0.244,-0.49L0.249,-0.483L0.249,-0.158C0.249,-0.125 0.255,-0.1 0.268,-0.084C0.281,-0.068 0.299,-0.06 0.321,-0.06C0.344,-0.06 0.365,-0.066 0.384,-0.078C0.402,-0.09 0.415,-0.103 0.424,-0.117L0.424,-0.38C0.424,-0.391 0.422,-0.401 0.417,-0.41C0.413,-0.418 0.407,-0.426 0.399,-0.431C0.393,-0.435 0.385,-0.438 0.374,-0.439C0.363,-0.44 0.352,-0.441 0.34,-0.442L0.34,-0.478L0.578,-0.49L0.585,-0.483L0.585,-0.106C0.585,-0.095 0.587,-0.085 0.592,-0.077C0.596,-0.069 0.603,-0.062 0.612,-0.057C0.618,-0.053 0.626,-0.05 0.636,-0.049C0.646,-0.047 0.655,-0.046 0.665,-0.046L0.665,-0.01Z" style="fill:rgb(250,245,209);fill-opacity:0.55;fill-rule:nonzero;"/>
        </g>
        <g transform="matrix(41.3952,0,0,41.3952,530.703,176.79)">
            <path d="M0.254,0.017C0.223,0.017 0.192,0.012 0.162,0.003C0.132,-0.007 0.108,-0.016 0.092,-0.027L0.077,0.006L0.039,0.006L0.033,-0.176L0.068,-0.176C0.073,-0.161 0.081,-0.145 0.093,-0.126C0.104,-0.108 0.117,-0.091 0.132,-0.077C0.147,-0.062 0.165,-0.05 0.184,-0.04C0.204,-0.029 0.225,-0.024 0.248,-0.024C0.277,-0.024 0.299,-0.03 0.314,-0.042C0.328,-0.053 0.335,-0.071 0.335,-0.095C0.335,-0.108 0.332,-0.119 0.326,-0.127C0.319,-0.136 0.31,-0.143 0.299,-0.149C0.286,-0.156 0.272,-0.161 0.257,-0.166C0.242,-0.171 0.223,-0.176 0.201,-0.183C0.179,-0.189 0.16,-0.196 0.144,-0.202C0.128,-0.209 0.112,-0.22 0.095,-0.234C0.081,-0.247 0.069,-0.262 0.06,-0.28C0.051,-0.298 0.047,-0.319 0.047,-0.344C0.047,-0.39 0.066,-0.427 0.105,-0.455C0.143,-0.483 0.194,-0.498 0.256,-0.498C0.286,-0.498 0.313,-0.495 0.338,-0.489C0.363,-0.483 0.384,-0.476 0.401,-0.469L0.411,-0.498L0.448,-0.498L0.456,-0.331L0.422,-0.331C0.41,-0.365 0.391,-0.394 0.363,-0.419C0.336,-0.443 0.306,-0.456 0.274,-0.456C0.249,-0.456 0.229,-0.45 0.215,-0.44C0.201,-0.43 0.193,-0.415 0.193,-0.396C0.193,-0.372 0.204,-0.354 0.225,-0.343C0.246,-0.332 0.275,-0.321 0.313,-0.312C0.371,-0.297 0.414,-0.276 0.44,-0.25C0.467,-0.224 0.481,-0.191 0.481,-0.151C0.481,-0.098 0.46,-0.057 0.418,-0.027C0.376,0.002 0.322,0.017 0.254,0.017Z" style="fill:rgb(250,245,209);fill-opacity:0.55;fill-rule:nonzero;"/>
        </g>
        <g transform="matrix(41.3952,0,0,41.3952,551.926,176.79)">
            <path d="M0.392,-0.022C0.371,-0.013 0.348,-0.005 0.325,0.002C0.301,0.01 0.272,0.013 0.238,0.013C0.187,0.013 0.149,0.001 0.125,-0.024C0.1,-0.049 0.088,-0.084 0.088,-0.13L0.088,-0.429L0,-0.429L0,-0.482L0.09,-0.482L0.09,-0.63L0.248,-0.63L0.248,-0.482L0.385,-0.482L0.385,-0.429L0.249,-0.429L0.249,-0.162C0.249,-0.124 0.254,-0.097 0.265,-0.081C0.276,-0.065 0.295,-0.057 0.322,-0.057C0.331,-0.057 0.343,-0.058 0.359,-0.059C0.374,-0.06 0.385,-0.062 0.392,-0.063L0.392,-0.022Z" style="fill:rgb(250,245,209);fill-opacity:0.55;fill-rule:nonzero;"/>
        </g>
        <g transform="matrix(41.3952,0,0,41.3952,568.379,176.79)">
            <path d="M0.515,-0.395C0.515,-0.37 0.507,-0.349 0.492,-0.33C0.476,-0.311 0.456,-0.302 0.431,-0.302C0.407,-0.302 0.387,-0.308 0.371,-0.32C0.354,-0.332 0.346,-0.349 0.346,-0.373C0.346,-0.384 0.347,-0.393 0.349,-0.399C0.35,-0.406 0.352,-0.411 0.353,-0.417C0.338,-0.416 0.322,-0.411 0.306,-0.402C0.289,-0.392 0.274,-0.379 0.262,-0.363L0.262,-0.095C0.262,-0.083 0.264,-0.074 0.267,-0.066C0.271,-0.059 0.277,-0.053 0.285,-0.049C0.292,-0.045 0.304,-0.042 0.32,-0.04C0.336,-0.037 0.348,-0.036 0.355,-0.036L0.355,-0L0.028,-0L0.028,-0.036C0.036,-0.036 0.045,-0.037 0.053,-0.038C0.061,-0.039 0.068,-0.041 0.074,-0.043C0.085,-0.047 0.092,-0.052 0.096,-0.06C0.1,-0.067 0.102,-0.077 0.102,-0.089L0.102,-0.373C0.102,-0.385 0.099,-0.395 0.093,-0.405C0.088,-0.414 0.081,-0.421 0.073,-0.427C0.067,-0.431 0.06,-0.434 0.051,-0.437C0.042,-0.439 0.032,-0.441 0.021,-0.442L0.021,-0.478L0.254,-0.49L0.262,-0.483L0.262,-0.412L0.264,-0.412C0.286,-0.438 0.31,-0.459 0.335,-0.473C0.36,-0.488 0.387,-0.496 0.414,-0.496C0.444,-0.496 0.469,-0.486 0.487,-0.468C0.505,-0.449 0.515,-0.425 0.515,-0.395Z" style="fill:rgb(250,245,209);fill-opacity:0.55;fill-rule:nonzero;"/>
        </g>
        <g transform="matrix(41.3952,0,0,41.3952,589.905,176.79)">
            <path d="M0.58,-0.449C0.565,-0.446 0.551,-0.441 0.537,-0.432C0.524,-0.423 0.512,-0.41 0.503,-0.391C0.475,-0.332 0.446,-0.269 0.417,-0.202C0.387,-0.135 0.354,-0.063 0.318,0.015C0.298,0.059 0.278,0.094 0.259,0.12C0.24,0.146 0.223,0.166 0.206,0.18C0.19,0.193 0.175,0.202 0.16,0.208C0.144,0.214 0.129,0.217 0.113,0.217C0.082,0.217 0.057,0.208 0.038,0.191C0.019,0.174 0.01,0.154 0.01,0.133C0.01,0.124 0.011,0.115 0.013,0.107C0.015,0.1 0.02,0.091 0.026,0.083C0.032,0.076 0.04,0.07 0.051,0.065C0.061,0.06 0.074,0.057 0.087,0.057C0.106,0.057 0.123,0.063 0.14,0.076C0.156,0.089 0.173,0.106 0.191,0.129C0.202,0.118 0.215,0.102 0.231,0.081C0.247,0.059 0.258,0.037 0.266,0.015C0.227,-0.066 0.193,-0.137 0.163,-0.197C0.133,-0.256 0.1,-0.323 0.063,-0.396C0.054,-0.412 0.043,-0.424 0.03,-0.433C0.016,-0.441 0.002,-0.447 -0.014,-0.449L-0.014,-0.484L0.285,-0.484L0.285,-0.449C0.274,-0.448 0.261,-0.446 0.247,-0.441C0.232,-0.437 0.225,-0.431 0.225,-0.424C0.225,-0.421 0.226,-0.418 0.227,-0.415C0.228,-0.412 0.229,-0.408 0.232,-0.402C0.243,-0.379 0.259,-0.348 0.279,-0.307C0.299,-0.267 0.323,-0.219 0.35,-0.165C0.37,-0.211 0.387,-0.251 0.402,-0.284C0.416,-0.318 0.429,-0.35 0.443,-0.382C0.446,-0.39 0.448,-0.397 0.448,-0.402C0.449,-0.406 0.449,-0.41 0.449,-0.411C0.449,-0.417 0.446,-0.422 0.441,-0.427C0.435,-0.431 0.428,-0.435 0.42,-0.438C0.412,-0.441 0.404,-0.444 0.397,-0.445C0.389,-0.447 0.383,-0.448 0.378,-0.449L0.378,-0.484L0.58,-0.484L0.58,-0.449Z" style="fill:rgb(250,245,209);fill-opacity:0.75;fill-rule:nonzero;"/>
        </g>
    </g>
    <g opacity="0.53">
        <g transform="matrix(0.696679,0,0,0.696679,459.866,-73.7537)">
            <path d="M538.012,561.045C536.759,561.045 535.577,560.454 534.825,559.452L525.055,546.425C524.536,545.735 524.256,544.895 524.256,544.031C524.256,541.846 526.054,540.048 528.239,540.048C529.494,540.048 530.677,540.641 531.429,541.645L537.821,550.167L554.237,525.543C554.974,524.43 556.223,523.758 557.558,523.758C559.744,523.758 561.542,525.557 561.542,527.742C561.542,528.533 561.307,529.306 560.866,529.962L541.326,559.271C540.61,560.346 539.414,561.008 538.122,561.044C538.085,561.045 538.049,561.045 538.012,561.045Z" style="fill:white;fill-rule:nonzero;"/>
        </g>
        <g transform="matrix(0.696679,0,0,0.696679,673.001,1.12562e-06)">
            <circle cx="160.604" cy="92.503" r="17" style="fill:rgb(242,242,242);"/>
        </g>
        <g transform="matrix(1,0,0,1,-5,17)">
            <g transform="matrix(0.696679,0,0,0.696679,262.954,178.399)">
                <circle cx="160.604" cy="92.503" r="17" style="fill:rgb(242,242,242);"/>
            </g>
            <g transform="matrix(0.696679,0,0,0.696679,490.954,126.399)">
                <circle cx="160.604" cy="92.503" r="17" style="fill:rgb(242,242,242);"/>
            </g>
        </g>
        <g transform="matrix(0.696679,0,0,0.696679,673.001,1.12562e-06)">
            <circle cx="489.604" cy="158.503" r="17" style="fill:rgb(242,242,242);"/>
        </g>
    </g>
    <g transform="matrix(1,0,0,1,104,153)">
        <g transform="matrix(30,0,0,30,181,94.68)">
            <path d="M0.636,-0.471C0.657,-0.404 0.683,-0.342 0.714,-0.285C0.742,-0.363 0.762,-0.466 0.774,-0.593L0.671,-0.593C0.65,-0.546 0.631,-0.503 0.612,-0.464L0.636,-0.471ZM0.904,-0.593C0.881,-0.415 0.841,-0.277 0.782,-0.18C0.838,-0.107 0.906,-0.046 0.986,0.005L0.886,0.093C0.817,0.042 0.759,-0.017 0.712,-0.085C0.655,-0.021 0.578,0.038 0.481,0.092L0.438,0.038C0.536,-0.025 0.61,-0.095 0.659,-0.172C0.626,-0.238 0.598,-0.312 0.575,-0.393L0.559,-0.364C0.552,-0.351 0.547,-0.342 0.543,-0.335L0.474,-0.373L0.495,-0.425L0.44,-0.394L0.419,-0.439L0.352,-0.439L0.352,-0.306L0.513,-0.306L0.506,-0.242L0.352,-0.242L0.352,-0.127L0.524,-0.148L0.522,-0.067C0.359,-0.031 0.196,0.001 0.033,0.03L0.021,-0.09C0.116,-0.1 0.187,-0.108 0.232,-0.113L0.232,-0.242L0.058,-0.242L0.053,-0.306L0.232,-0.306L0.232,-0.439L0.129,-0.439C0.101,-0.44 0.084,-0.45 0.077,-0.469C0.07,-0.487 0.075,-0.508 0.09,-0.533C0.151,-0.629 0.186,-0.685 0.196,-0.702L0.058,-0.702L0.054,-0.766L0.521,-0.766L0.514,-0.702L0.339,-0.702C0.311,-0.659 0.266,-0.594 0.203,-0.508L0.385,-0.508C0.365,-0.55 0.347,-0.587 0.331,-0.618L0.399,-0.652C0.46,-0.565 0.499,-0.509 0.516,-0.483C0.551,-0.585 0.586,-0.705 0.619,-0.844L0.758,-0.827C0.74,-0.772 0.72,-0.716 0.698,-0.66L0.968,-0.66L0.962,-0.593L0.904,-0.593Z" style="fill:white;fill-opacity:0.53;fill-rule:nonzero;"/>
        </g>
        <g transform="matrix(30,0,0,30,211,94.68)">
            <path d="M0.821,-0.627C0.856,-0.626 0.873,-0.609 0.873,-0.578L0.873,-0.068C0.873,0.009 0.83,0.048 0.745,0.048L0.488,0.048L0.48,-0.012L0.741,-0.012L0.741,-0.559L0.517,-0.559C0.494,-0.41 0.453,-0.287 0.394,-0.188C0.329,-0.08 0.233,0.014 0.107,0.095L0.05,0.041C0.155,-0.038 0.233,-0.126 0.284,-0.224C0.331,-0.313 0.362,-0.424 0.378,-0.559L0.119,-0.559L0.114,-0.627L0.385,-0.627C0.391,-0.696 0.395,-0.771 0.397,-0.85L0.544,-0.85C0.539,-0.757 0.533,-0.683 0.526,-0.627L0.821,-0.627Z" style="fill:white;fill-opacity:0.53;fill-rule:nonzero;"/>
        </g>
        <g transform="matrix(30,0,0,30,241,94.68)">
            <path d="M0.04,-0.485L0.958,-0.485L0.949,-0.412L0.046,-0.412L0.04,-0.485Z" style="fill:white;fill-opacity:0.53;fill-rule:nonzero;"/>
        </g>
        <g transform="matrix(30,0,0,30,271,94.68)">
            <path d="M0.207,-0.39C0.164,-0.425 0.104,-0.472 0.027,-0.531L0.073,-0.595C0.175,-0.544 0.241,-0.51 0.271,-0.493L0.207,-0.39ZM0.28,-0.304C0.233,-0.201 0.183,-0.099 0.132,-0L0.033,-0.055L0.208,-0.351L0.28,-0.304ZM0.196,0.048C0.255,0.003 0.296,-0.053 0.319,-0.12C0.338,-0.175 0.349,-0.253 0.352,-0.356L0.473,-0.356C0.465,-0.243 0.446,-0.156 0.416,-0.094C0.381,-0.021 0.323,0.039 0.242,0.087L0.196,0.048ZM0.537,-0.354L0.649,-0.354L0.649,0.054L0.537,0.054L0.537,-0.354ZM0.974,0.014L0.968,0.062L0.833,0.062C0.789,0.062 0.76,0.055 0.746,0.041C0.733,0.028 0.727,0.001 0.727,-0.038L0.727,-0.362L0.823,-0.362L0.791,-0.409L0.4,-0.409C0.367,-0.409 0.347,-0.419 0.338,-0.44C0.33,-0.459 0.335,-0.481 0.353,-0.505L0.475,-0.657L0.308,-0.657L0.305,-0.696L0.248,-0.609C0.191,-0.66 0.133,-0.708 0.076,-0.755L0.123,-0.816C0.213,-0.766 0.273,-0.731 0.304,-0.712L0.303,-0.72L0.556,-0.72L0.556,-0.851L0.682,-0.851L0.682,-0.72L0.934,-0.72L0.926,-0.657L0.628,-0.657L0.465,-0.473L0.746,-0.473C0.721,-0.509 0.695,-0.547 0.666,-0.586L0.727,-0.629C0.802,-0.551 0.865,-0.483 0.915,-0.426L0.836,-0.362L0.836,0.014L0.974,0.014Z" style="fill:white;fill-opacity:0.53;fill-rule:nonzero;"/>
        </g>
        <g transform="matrix(30,0,0,30,301,94.68)">
            <path d="M0.348,-0.061L0.348,-0.315L0.19,-0.315L0.19,-0.061L0.348,-0.061ZM0.348,-0.592L0.19,-0.592L0.19,-0.379L0.348,-0.379L0.348,-0.592ZM0.867,-0.661C0.881,-0.661 0.893,-0.657 0.903,-0.648C0.913,-0.639 0.918,-0.627 0.918,-0.613L0.918,-0.032C0.918,0.043 0.878,0.08 0.799,0.08L0.605,0.08L0.597,0.024L0.795,0.024L0.795,-0.592L0.622,-0.592C0.592,-0.533 0.559,-0.476 0.524,-0.421L0.464,-0.453L0.464,0.005L0.076,0.005L0.076,-0.658L0.17,-0.658C0.183,-0.707 0.193,-0.766 0.201,-0.836L0.342,-0.818C0.325,-0.766 0.302,-0.713 0.275,-0.658L0.37,-0.658C0.406,-0.658 0.431,-0.652 0.445,-0.64C0.458,-0.629 0.464,-0.608 0.464,-0.578L0.464,-0.489C0.499,-0.572 0.537,-0.693 0.578,-0.852L0.722,-0.828C0.701,-0.769 0.678,-0.713 0.655,-0.661L0.867,-0.661ZM0.675,-0.168C0.603,-0.271 0.55,-0.345 0.517,-0.391L0.585,-0.439C0.68,-0.344 0.743,-0.279 0.774,-0.246L0.675,-0.168Z" style="fill:white;fill-opacity:0.53;fill-rule:nonzero;"/>
        </g>
        <g transform="matrix(30,0,0,30,331,94.68)">
            <path d="M0.3,-0.315L0.3,-0.496L0.205,-0.496C0.203,-0.433 0.199,-0.373 0.193,-0.315L0.3,-0.315ZM0.211,-0.734C0.211,-0.673 0.21,-0.614 0.208,-0.558L0.3,-0.558L0.3,-0.734L0.211,-0.734ZM0.368,-0.799C0.399,-0.798 0.414,-0.782 0.414,-0.753L0.414,-0.038C0.414,0.035 0.377,0.071 0.304,0.071L0.217,0.071L0.209,0.018L0.3,0.018L0.3,-0.253L0.185,-0.253C0.169,-0.133 0.144,-0.019 0.109,0.088L0.033,0.069C0.075,-0.108 0.094,-0.398 0.091,-0.799L0.368,-0.799ZM0.584,0.037C0.627,-0.004 0.665,-0.051 0.698,-0.104C0.653,-0.172 0.616,-0.256 0.587,-0.355L0.661,-0.378C0.686,-0.313 0.716,-0.256 0.75,-0.209C0.771,-0.264 0.788,-0.323 0.799,-0.387L0.584,-0.387L0.584,0.037ZM0.892,-0.452C0.924,-0.452 0.935,-0.434 0.925,-0.399C0.898,-0.29 0.864,-0.199 0.821,-0.125C0.866,-0.08 0.921,-0.041 0.985,-0.008L0.898,0.086C0.845,0.055 0.798,0.016 0.756,-0.03C0.721,0.013 0.681,0.053 0.634,0.089L0.584,0.051L0.584,0.088L0.476,0.088L0.476,-0.793L0.835,-0.793C0.868,-0.793 0.884,-0.78 0.884,-0.754L0.884,-0.613C0.884,-0.584 0.873,-0.564 0.851,-0.554C0.836,-0.547 0.808,-0.543 0.769,-0.543L0.662,-0.543L0.655,-0.591L0.766,-0.591L0.766,-0.729L0.584,-0.729L0.584,-0.452L0.892,-0.452Z" style="fill:white;fill-opacity:0.53;fill-rule:nonzero;"/>
        </g>
        <g transform="matrix(30,0,0,30,361,94.68)">
            <path d="M0.445,-0.723L0.627,-0.723L0.627,-0.851L0.742,-0.851L0.742,-0.723L0.947,-0.723L0.941,-0.662L0.742,-0.662L0.742,-0.519L0.91,-0.519L0.903,-0.458L0.485,-0.458L0.48,-0.519L0.627,-0.519L0.627,-0.662L0.449,-0.662L0.445,-0.723ZM0.228,-0.62C0.179,-0.667 0.133,-0.711 0.09,-0.752L0.142,-0.803C0.209,-0.762 0.263,-0.729 0.303,-0.702L0.228,-0.62ZM0.304,-0.526C0.227,-0.481 0.16,-0.443 0.104,-0.413L0.063,-0.521C0.167,-0.564 0.247,-0.599 0.304,-0.625L0.304,-0.849L0.419,-0.849L0.419,-0.41L0.304,-0.41L0.304,-0.526ZM0.588,-0.281L0.556,-0.259C0.587,-0.222 0.622,-0.189 0.661,-0.162C0.71,-0.199 0.757,-0.238 0.803,-0.281L0.588,-0.281ZM0.882,-0.208C0.83,-0.172 0.782,-0.142 0.738,-0.119C0.8,-0.09 0.879,-0.068 0.974,-0.055L0.93,0.073C0.737,0.035 0.589,-0.061 0.487,-0.216C0.46,-0.2 0.432,-0.185 0.403,-0.171L0.403,-0.043L0.552,-0.083L0.562,-0.014C0.449,0.031 0.344,0.069 0.248,0.101L0.229,0.001L0.291,-0.014L0.291,-0.121C0.217,-0.091 0.138,-0.066 0.053,-0.045L0.024,-0.114C0.159,-0.155 0.278,-0.21 0.379,-0.281L0.067,-0.281L0.062,-0.342L0.452,-0.342L0.452,-0.427L0.572,-0.427L0.572,-0.342L0.946,-0.342L0.938,-0.281L0.818,-0.281L0.882,-0.208Z" style="fill:white;fill-opacity:0.53;fill-rule:nonzero;"/>
        </g>
        <g transform="matrix(30,0,0,30,391,94.68)">
            <path d="M0.746,-0.204C0.773,-0.204 0.789,-0.193 0.795,-0.17C0.8,-0.148 0.793,-0.131 0.772,-0.119C0.711,-0.084 0.65,-0.05 0.587,-0.017C0.647,-0.001 0.692,0.011 0.721,0.02L0.683,0.107C0.536,0.054 0.389,0.003 0.24,-0.046L0.273,-0.101L0.474,-0.048C0.537,-0.091 0.586,-0.125 0.621,-0.15L0.194,-0.15L0.19,-0.203L0.45,-0.203L0.45,-0.294L0.561,-0.294L0.561,-0.203L0.746,-0.204ZM0.599,-0.449L0.566,-0.422C0.676,-0.356 0.813,-0.31 0.977,-0.284L0.935,-0.176C0.774,-0.213 0.63,-0.28 0.504,-0.377C0.375,-0.287 0.229,-0.218 0.066,-0.171L0.035,-0.237C0.152,-0.278 0.256,-0.331 0.349,-0.396C0.298,-0.409 0.245,-0.422 0.188,-0.435L0.197,-0.486C0.25,-0.481 0.309,-0.474 0.373,-0.466L0.367,-0.409C0.394,-0.43 0.423,-0.454 0.453,-0.481L0.44,-0.481L0.44,-0.637L0.177,-0.637L0.177,-0.493L0.069,-0.493L0.069,-0.695L0.44,-0.695L0.44,-0.751L0.147,-0.751L0.143,-0.805L0.846,-0.805L0.839,-0.751L0.557,-0.751L0.557,-0.695L0.903,-0.695C0.926,-0.695 0.937,-0.685 0.937,-0.664L0.937,-0.49L0.828,-0.49L0.828,-0.637L0.557,-0.637L0.557,-0.481L0.505,-0.481L0.599,-0.449ZM0.399,-0.508C0.35,-0.519 0.291,-0.531 0.222,-0.544L0.229,-0.593C0.304,-0.586 0.363,-0.582 0.404,-0.579L0.399,-0.508ZM0.804,-0.38C0.742,-0.397 0.68,-0.412 0.617,-0.427L0.632,-0.476L0.821,-0.454L0.804,-0.38ZM0.781,-0.504L0.601,-0.539L0.608,-0.587C0.701,-0.581 0.761,-0.577 0.786,-0.575L0.781,-0.504Z" style="fill:white;fill-opacity:0.53;fill-rule:nonzero;"/>
        </g>
        <g transform="matrix(30,0,0,30,421,94.68)">
            <path d="M0.725,-0.15L0.307,-0.15L0.307,0.008L0.725,0.008L0.725,-0.15ZM0.768,-0.208C0.825,-0.208 0.854,-0.185 0.854,-0.139L0.854,0.066L0.179,0.066L0.179,-0.208L0.768,-0.208ZM0.286,-0.33L0.526,-0.33L0.526,-0.411L0.315,-0.411L0.31,-0.464L0.526,-0.464L0.526,-0.543L0.313,-0.543L0.309,-0.596L0.526,-0.596L0.526,-0.676L0.296,-0.676L0.286,-0.664L0.286,-0.33ZM0.966,-0.33L0.958,-0.274L0.286,-0.274L0.286,-0.236L0.167,-0.236L0.167,-0.531C0.135,-0.499 0.105,-0.47 0.076,-0.444L0.015,-0.502C0.096,-0.595 0.175,-0.712 0.251,-0.854L0.4,-0.819C0.377,-0.785 0.357,-0.756 0.339,-0.732L0.527,-0.732L0.527,-0.842L0.646,-0.842L0.646,-0.732L0.938,-0.732L0.931,-0.676L0.651,-0.676L0.651,-0.596L0.905,-0.596L0.898,-0.543L0.651,-0.543L0.651,-0.464L0.907,-0.464L0.9,-0.411L0.651,-0.411L0.651,-0.33L0.966,-0.33Z" style="fill:white;fill-opacity:0.53;fill-rule:nonzero;"/>
        </g>
        <g transform="matrix(30,0,0,30,451,94.68)">
            <path d="M0.433,-0.446C0.493,-0.551 0.539,-0.687 0.571,-0.854L0.724,-0.84C0.707,-0.783 0.689,-0.729 0.669,-0.68L0.906,-0.68C0.929,-0.68 0.945,-0.675 0.954,-0.664C0.962,-0.654 0.963,-0.641 0.956,-0.624L0.918,-0.529C0.903,-0.49 0.889,-0.457 0.876,-0.428L0.788,-0.454C0.799,-0.504 0.808,-0.558 0.817,-0.616L0.641,-0.616C0.606,-0.54 0.564,-0.47 0.517,-0.406L0.433,-0.446ZM0.497,-0.178L0.437,-0.165C0.41,-0.16 0.39,-0.155 0.377,-0.152L0.377,0.091L0.258,0.091L0.258,-0.128C0.177,-0.111 0.102,-0.097 0.035,-0.086L0.024,-0.201C0.146,-0.214 0.224,-0.222 0.258,-0.226L0.258,-0.343L0.123,-0.343C0.065,-0.343 0.046,-0.379 0.065,-0.45C0.086,-0.523 0.105,-0.588 0.124,-0.646L0.039,-0.646L0.035,-0.708L0.143,-0.708L0.187,-0.846L0.317,-0.822L0.28,-0.708L0.484,-0.708L0.477,-0.646L0.259,-0.646C0.236,-0.579 0.206,-0.499 0.171,-0.406L0.262,-0.406L0.262,-0.589L0.377,-0.589L0.377,-0.406L0.474,-0.406L0.468,-0.343L0.377,-0.343L0.377,-0.241L0.495,-0.256L0.497,-0.178ZM0.864,0.087C0.788,0.006 0.729,-0.094 0.686,-0.213C0.643,-0.098 0.57,0.006 0.468,0.097L0.411,0.054C0.483,-0.025 0.535,-0.112 0.566,-0.209C0.592,-0.29 0.61,-0.4 0.619,-0.541L0.755,-0.541C0.75,-0.482 0.741,-0.423 0.729,-0.364C0.788,-0.209 0.872,-0.084 0.98,0.009L0.864,0.087Z" style="fill:white;fill-opacity:0.53;fill-rule:nonzero;"/>
        </g>
        <g transform="matrix(30,0,0,30,481,94.68)">
            <path d="M0.399,-0.817C0.358,-0.73 0.313,-0.647 0.264,-0.57L0.264,0.086L0.145,0.086L0.145,-0.403C0.117,-0.368 0.095,-0.342 0.08,-0.325L0.014,-0.378C0.097,-0.497 0.177,-0.655 0.254,-0.854L0.399,-0.817ZM0.972,-0.244L0.737,-0.244L0.737,0.089L0.61,0.089L0.61,-0.244L0.301,-0.244L0.296,-0.312L0.61,-0.312L0.61,-0.547L0.474,-0.547C0.441,-0.475 0.408,-0.41 0.373,-0.353L0.297,-0.385C0.345,-0.486 0.385,-0.611 0.416,-0.76L0.546,-0.748C0.533,-0.703 0.518,-0.659 0.501,-0.615L0.61,-0.615L0.61,-0.85L0.737,-0.85L0.737,-0.615L0.933,-0.615L0.926,-0.547L0.737,-0.547L0.737,-0.312L0.98,-0.312L0.972,-0.244Z" style="fill:white;fill-opacity:0.53;fill-rule:nonzero;"/>
        </g>
        <g transform="matrix(30,0,0,30,511,94.68)">
            <path d="M0.414,-0.815C0.37,-0.733 0.322,-0.655 0.27,-0.58L0.27,0.086L0.146,0.086L0.146,-0.421C0.131,-0.403 0.108,-0.377 0.077,-0.344L0.016,-0.399C0.104,-0.514 0.19,-0.666 0.274,-0.854L0.414,-0.815ZM0.711,-0.569C0.772,-0.435 0.864,-0.319 0.986,-0.221L0.9,-0.112C0.805,-0.205 0.728,-0.319 0.669,-0.453L0.669,-0.188L0.816,-0.188L0.81,-0.124L0.677,-0.124L0.677,0.087L0.541,0.087L0.541,-0.124L0.404,-0.124L0.4,-0.188L0.549,-0.188L0.549,-0.419C0.49,-0.308 0.411,-0.198 0.311,-0.091L0.283,-0.215C0.375,-0.321 0.445,-0.439 0.494,-0.569L0.32,-0.569L0.315,-0.636L0.545,-0.636L0.545,-0.853L0.673,-0.853L0.673,-0.636L0.943,-0.636L0.935,-0.569L0.711,-0.569Z" style="fill:white;fill-opacity:0.53;fill-rule:nonzero;"/>
        </g>
        <g transform="matrix(30,0,0,30,541,94.68)">
            <path d="M0.368,-0.185C0.281,-0.093 0.199,-0.012 0.124,0.059L0.05,-0.033C0.147,-0.109 0.232,-0.18 0.307,-0.245L0.368,-0.185ZM0.57,-0.25L0.57,-0.009C0.57,0.029 0.557,0.055 0.531,0.07C0.51,0.081 0.479,0.087 0.437,0.087L0.311,0.087L0.303,0.036L0.437,0.036L0.437,-0.25L0.199,-0.25C0.15,-0.25 0.124,-0.267 0.12,-0.3C0.115,-0.333 0.137,-0.361 0.184,-0.384C0.245,-0.414 0.299,-0.441 0.347,-0.466L0.244,-0.466C0.207,-0.466 0.185,-0.479 0.176,-0.505C0.168,-0.531 0.177,-0.555 0.203,-0.577C0.229,-0.599 0.263,-0.628 0.304,-0.665C0.254,-0.659 0.196,-0.654 0.129,-0.649L0.113,-0.724C0.335,-0.755 0.543,-0.8 0.737,-0.859L0.782,-0.746C0.688,-0.724 0.598,-0.706 0.512,-0.693L0.314,-0.532L0.475,-0.532L0.734,-0.667L0.809,-0.575C0.61,-0.473 0.438,-0.387 0.294,-0.316L0.751,-0.316L0.66,-0.441L0.722,-0.488C0.81,-0.399 0.878,-0.327 0.926,-0.273L0.835,-0.198L0.798,-0.25L0.57,-0.25ZM0.691,-0.244C0.795,-0.154 0.874,-0.083 0.928,-0.031L0.836,0.056C0.758,-0.039 0.689,-0.122 0.629,-0.191L0.691,-0.244Z" style="fill:white;fill-opacity:0.53;fill-rule:nonzero;"/>
        </g>
    </g>
    <g transform="matrix(0.685362,0,0,0.685362,265.751,9)">
        <g transform="matrix(0.696679,0,0,0.696679,459.866,-73.7537)">
            <path d="M310.019,435.422C315.067,443.853 324.2,449.029 334.026,449.029C340.775,449.029 347.302,446.587 352.394,442.156L438.65,491.628L435.436,440.056L354.018,400.983C348.739,395.671 341.551,392.68 334.062,392.68C318.629,392.68 305.929,405.38 305.929,420.814C305.929,425.965 307.344,431.019 310.019,435.422Z" style="fill:rgb(242,209,190);fill-rule:nonzero;"/>
        </g>
        <g transform="matrix(0.696679,0,0,0.696679,459.866,-73.7537)">
            <path d="M559.741,633.604C534.154,669.415 535.07,729.329 542.208,794.903L663.183,794.903L668.442,782.63L675.455,794.903L789.417,794.903C789.417,794.903 780.65,628.344 764.871,623.084C749.092,617.824 559.741,633.604 559.741,633.604Z" style="fill:rgb(47,46,65);fill-rule:nonzero;"/>
        </g>
        <g transform="matrix(0.696679,0,0,0.696679,673.001,1.12562e-06)">
            <circle cx="357.252" cy="92.218" r="61.364" style="fill:rgb(242,209,190);"/>
        </g>
        <g transform="matrix(0.696679,0,0,0.696679,459.866,-73.7537)">
            <path d="M707.534,275.368L719.534,298.368L802.534,335.368L780.717,546.504L771.534,568.368L776.495,587.355L764.534,601.368C776.541,612.232 778.066,623.604 771.534,635.368L733.313,644.123C733.313,644.123 520.791,663.021 538.702,630.097C558.271,594.123 563.255,487.882 520.053,431.109C483.375,382.91 511.534,320.368 511.534,320.368L598.534,294.368L630.534,275.368L707.534,275.368Z" style="fill:rgb(250,240,189);fill-rule:nonzero;"/>
        </g>
        <g transform="matrix(0.696679,0,0,0.696679,459.866,-73.7537)">
            <path d="M690.426,108.195C691.014,106.949 692.307,106.182 693.682,106.262C665.589,104.582 635.998,107.856 612.495,123.337C606.801,127.088 601.432,131.562 595.236,134.283C594.57,134.582 594.139,135.248 594.139,135.978C594.139,136.551 594.404,137.094 594.857,137.446L595.537,137.979C595.988,138.333 596.252,138.875 596.252,139.448C596.252,140.266 595.713,140.994 594.93,141.233C594.147,141.471 593.608,142.199 593.608,143.018C593.608,143.65 593.929,144.241 594.461,144.585L599.676,147.955C600.212,148.296 600.538,148.889 600.538,149.524C600.538,150.152 600.22,150.739 599.693,151.081C599.251,151.354 598.788,151.589 598.306,151.784C597.582,152.057 597.099,152.753 597.099,153.527C597.099,154.055 597.324,154.559 597.716,154.912C599.975,156.922 601.707,159.455 602.762,162.289C604.501,166.808 604.813,171.731 605.106,176.564C606.903,169.59 614.514,165.485 621.704,165.067C628.894,164.65 635.906,167.023 642.903,168.728C658.143,172.431 673.972,173.04 689.451,170.519C684.195,181.067 688.629,193.65 693.091,204.558L707.534,198.368C727.37,187.171 713.553,234.535 706.137,241.038C721.279,246.287 760.91,188.024 748.16,165.923C741.528,154.427 746.236,139.599 733.198,128.696C726.807,121.969 714.049,124.959 707.534,119.368C704.97,117.167 708.878,111.28 705.354,109.997C704.184,109.571 690.619,107.765 690.426,108.195Z" style="fill:url(#_Linear1);fill-rule:nonzero;"/>
        </g>
        <g transform="matrix(0.696679,0,0,0.696679,459.866,-73.7537)">
            <path d="M586.484,300.308C575.224,350.298 546.344,467.018 517.044,491.428C515.186,493.182 512.958,494.498 510.524,495.278C407.534,520.368 374.534,456.368 374.534,456.368C374.534,456.368 402.134,442.918 402.834,416.628L458.494,433.898L507.014,324.708L514.154,318.048L514.194,318.008L586.484,300.308Z" style="fill:rgb(63,61,86);fill-rule:nonzero;"/>
        </g>
        <g transform="matrix(0.696679,0,0,0.696679,459.866,-73.7537)">
            <path d="M806.075,761.941C811.561,756.667 814.665,749.378 814.665,741.768C814.665,732.821 810.374,724.396 803.137,719.135L832.009,623.982L782.47,638.679L762.648,726.784C759.817,731.275 758.315,736.477 758.315,741.785C758.315,757.219 771.015,769.919 786.448,769.919C793.777,769.919 800.824,767.054 806.075,761.941L806.075,761.941Z" style="fill:rgb(255,184,184);fill-rule:nonzero;"/>
        </g>
        <g transform="matrix(0.696679,0,0,0.696679,459.866,-73.7537)">
            <path d="M779.65,330.045L802.534,335.368C802.534,335.368 897.118,519.396 874.326,554.461C851.534,589.526 823.611,705.617 823.611,705.617C823.611,705.617 782.313,697.407 766.534,676.368L795.43,538.681L765.624,422.967L779.65,330.045Z" style="fill:rgb(250,240,189);fill-rule:nonzero;"/>
        </g>
        <g transform="matrix(0.696679,0,0,0.696679,459.866,-73.7537)">
            <path d="M345.51,603.32L346.332,306.932C346.38,294.524 356.614,284.347 369.021,284.368L592.86,284.988C605.268,285.037 615.445,295.27 615.424,307.678L614.602,604.066C614.554,616.474 604.32,626.651 591.913,626.63L368.074,626.01C355.667,625.961 345.49,615.728 345.51,603.32Z" style="fill:rgb(230,230,230);fill-rule:nonzero;"/>
        </g>
        <g transform="matrix(0.696679,0,0,0.696679,459.866,-73.7537)">
            <path d="M362.928,513.846L363.456,323.301C363.501,311.681 373.086,302.15 384.706,302.169L577.077,302.702C588.697,302.747 598.228,312.331 598.209,323.952L597.478,587.697C597.433,599.317 587.848,608.848 576.228,608.829L457.058,608.499C405.299,608.297 362.843,565.606 362.928,513.846Z" style="fill:white;fill-rule:nonzero;"/>
        </g>
        <g transform="matrix(0.696679,0,0,0.696679,459.866,-73.7537)">
            <path d="M555.034,385.868L405.034,385.868C400.097,385.868 396.034,381.805 396.034,376.868C396.034,371.93 400.097,367.868 405.034,367.868L555.034,367.868C559.971,367.868 564.034,371.93 564.034,376.868C564.034,381.805 559.971,385.868 555.034,385.868Z" style="fill:rgb(1,103,117);fill-opacity:0.25;fill-rule:nonzero;"/>
        </g>
        <g transform="matrix(0.696679,0,0,0.696679,459.866,-73.7537)">
            <path d="M438.034,344.368L405.034,344.368C400.097,344.368 396.034,340.305 396.034,335.368C396.034,330.43 400.097,326.368 405.034,326.368L438.034,326.368C442.971,326.368 447.034,330.43 447.034,335.368C447.034,340.305 442.971,344.368 438.034,344.368Z" style="fill:rgb(1,103,117);fill-opacity:0.25;fill-rule:nonzero;"/>
        </g>
        <g transform="matrix(0.696679,0,0,0.696679,459.866,-73.7537)">
            <path d="M555.034,427.368L405.034,427.368C400.097,427.368 396.034,423.305 396.034,418.368C396.034,413.43 400.097,409.368 405.034,409.368L555.034,409.368C559.971,409.368 564.034,413.43 564.034,418.368C564.034,423.305 559.971,427.368 555.034,427.368Z" style="fill:rgb(1,103,117);fill-opacity:0.25;fill-rule:nonzero;"/>
        </g>
        <g transform="matrix(0.696679,0,0,0.696679,459.866,-73.7537)">
            <path d="M555.034,468.868L405.034,468.868C400.097,468.868 396.034,464.805 396.034,459.868C396.034,454.93 400.097,450.868 405.034,450.868L555.034,450.868C559.971,450.868 564.034,454.93 564.034,459.868C564.034,464.805 559.971,468.868 555.034,468.868Z" style="fill:rgb(1,103,117);fill-opacity:0.25;fill-rule:nonzero;"/>
        </g>
        <g transform="matrix(0.696679,0,0,0.696679,673.001,1.12562e-06)">
            <circle cx="236.967" cy="436.543" r="35.811" style="fill:rgb(39,184,205);fill-opacity:0.61;"/>
        </g>
    </g>
    <defs>
        <linearGradient id="_Linear1" x1="0" y1="0" x2="1" y2="0" gradientUnits="userSpaceOnUse" gradientTransform="matrix(157.041,0,0,135.506,593.608,173.618)"><stop offset="0" style="stop-color:rgb(76,76,76);stop-opacity:1"/><stop offset="1" style="stop-color:rgb(11,10,8);stop-opacity:1"/></linearGradient>
    </defs>
</svg>
