<?xml version="1.0" encoding="UTF-8" standalone="no"?>
<!DOCTYPE svg PUBLIC "-//W3C//DTD SVG 1.1//EN" "http://www.w3.org/Graphics/SVG/1.1/DTD/svg11.dtd">
<svg width="100%" height="100%" viewBox="0 0 250 56" version="1.1" xmlns="http://www.w3.org/2000/svg" xmlns:xlink="http://www.w3.org/1999/xlink" xml:space="preserve" xmlns:serif="http://www.serif.com/" style="fill-rule:evenodd;clip-rule:evenodd;stroke-linejoin:round;stroke-miterlimit:2;">
    <g transform="matrix(3.94972,0,0,3.94972,-487.84,-577.337)">
        <g transform="matrix(12,0,0,12,124.95,158.084)">
            <path d="M0.19,-0.697L0.185,-0.752L0.819,-0.752L0.811,-0.697L0.19,-0.697ZM0.511,-0.427C0.436,-0.316 0.351,-0.197 0.257,-0.068L0.725,-0.068C0.662,-0.179 0.612,-0.265 0.576,-0.326L0.638,-0.357C0.73,-0.229 0.814,-0.106 0.89,0.012L0.8,0.064L0.755,-0.015L0.212,-0.015C0.183,-0.015 0.165,-0.024 0.158,-0.042C0.151,-0.06 0.156,-0.081 0.171,-0.105L0.387,-0.427L0.053,-0.427L0.049,-0.482L0.955,-0.482L0.947,-0.427L0.511,-0.427Z" style="fill:white;fill-rule:nonzero;"/>
        </g>
        <g transform="matrix(12,0,0,12,136.95,158.084)">
            <path d="M0.051,-0.008C0.103,-0.089 0.148,-0.162 0.187,-0.225L0.245,-0.197C0.2,-0.107 0.159,-0.03 0.123,0.034L0.051,-0.008ZM0.58,-0.747L0.58,-0.639L0.8,-0.639L0.8,-0.747L0.58,-0.747ZM0.8,-0.335L0.8,-0.45L0.58,-0.45L0.58,-0.335L0.8,-0.335ZM0.58,-0.493L0.8,-0.493L0.8,-0.596L0.58,-0.596L0.58,-0.493ZM0.259,-0.267L0.259,-0.532C0.209,-0.448 0.144,-0.369 0.064,-0.294L0.043,-0.38C0.116,-0.457 0.174,-0.545 0.215,-0.642L0.085,-0.642L0.082,-0.693L0.259,-0.693L0.259,-0.845L0.344,-0.845L0.344,-0.693L0.48,-0.693L0.474,-0.642L0.344,-0.642L0.344,-0.567L0.362,-0.58C0.418,-0.527 0.463,-0.482 0.497,-0.445L0.497,-0.795L0.819,-0.795C0.844,-0.795 0.862,-0.791 0.871,-0.782C0.88,-0.774 0.885,-0.759 0.885,-0.737L0.885,-0.286L0.497,-0.286L0.497,-0.44L0.437,-0.391L0.344,-0.513L0.344,-0.267L0.259,-0.267ZM0.456,-0.298C0.515,-0.243 0.567,-0.192 0.614,-0.145L0.554,-0.085C0.497,-0.157 0.451,-0.215 0.414,-0.259L0.456,-0.298ZM0.371,0.015L0.757,0.015L0.749,0.055L0.375,0.055C0.337,0.055 0.312,0.049 0.299,0.037C0.286,0.026 0.28,0.003 0.28,-0.03L0.28,-0.238L0.371,-0.238L0.371,0.015ZM0.792,-0.247C0.869,-0.159 0.926,-0.091 0.965,-0.042L0.89,0.006C0.827,-0.089 0.776,-0.164 0.739,-0.217L0.792,-0.247Z" style="fill:white;fill-rule:nonzero;"/>
        </g>
        <g transform="matrix(12,0,0,12,148.95,158.084)">
            <path d="M0.112,-0.643L0.201,-0.643L0.201,0.084L0.112,0.084L0.112,-0.643ZM0.216,-0.829C0.284,-0.752 0.34,-0.688 0.383,-0.635L0.307,-0.582L0.163,-0.795L0.216,-0.829ZM0.84,-0.772C0.867,-0.772 0.88,-0.759 0.88,-0.733L0.88,-0.011C0.88,0.05 0.85,0.081 0.791,0.081L0.641,0.081L0.633,0.035L0.788,0.035L0.788,-0.718L0.392,-0.718L0.388,-0.771L0.788,-0.771L0.788,-0.772L0.84,-0.772Z" style="fill:white;fill-rule:nonzero;"/>
        </g>
        <g transform="matrix(12,0,0,12,160.95,158.084)">
            <path d="M0.256,-0.677C0.248,-0.357 0.194,-0.104 0.093,0.081L0.03,0.058C0.109,-0.117 0.148,-0.38 0.148,-0.731L0.492,-0.731L0.492,-0.844L0.587,-0.844L0.587,-0.731L0.937,-0.731L0.929,-0.677L0.256,-0.677ZM0.765,-0.232L0.417,-0.232L0.417,-0.018L0.765,-0.018L0.765,-0.232ZM0.596,-0.502L0.935,-0.502L0.929,-0.449L0.596,-0.449L0.596,-0.287L0.791,-0.287C0.84,-0.287 0.865,-0.266 0.865,-0.223L0.865,0.037L0.318,0.037L0.318,-0.287L0.501,-0.287L0.501,-0.641L0.596,-0.641L0.596,-0.502Z" style="fill:white;fill-rule:nonzero;"/>
        </g>
    </g>
    <g transform="matrix(0.39271,0,0,0.495656,50.6779,-70.446)">
        <path d="M485,171.25C485,166.145 479.769,162 473.325,162L395.675,162C389.231,162 384,166.145 384,171.25L384,189.75C384,194.855 389.231,199 395.675,199L473.325,199C479.769,199 485,194.855 485,189.75L485,171.25Z" style="fill:white;fill-opacity:0.57;"/>
    </g>
    <g transform="matrix(1,0,0,1,-193.711,-161.251)">
        <g transform="matrix(12,0,0,12,403.194,183.633)">
            <path d="M0.482,-0.601C0.467,-0.664 0.438,-0.714 0.393,-0.752L0.399,-0.766C0.456,-0.755 0.498,-0.743 0.527,-0.73C0.555,-0.717 0.569,-0.7 0.569,-0.681C0.569,-0.669 0.564,-0.655 0.554,-0.638C0.544,-0.621 0.53,-0.609 0.511,-0.601L0.837,-0.601L0.858,-0.631C0.865,-0.64 0.871,-0.645 0.876,-0.645C0.881,-0.645 0.892,-0.637 0.908,-0.62L0.952,-0.575C0.965,-0.562 0.971,-0.552 0.971,-0.545C0.971,-0.537 0.963,-0.532 0.946,-0.531C0.918,-0.529 0.893,-0.52 0.871,-0.502C0.848,-0.486 0.826,-0.462 0.803,-0.431L0.785,-0.441C0.804,-0.484 0.82,-0.528 0.833,-0.572L0.197,-0.572C0.198,-0.514 0.189,-0.472 0.172,-0.447C0.154,-0.421 0.133,-0.408 0.108,-0.408C0.093,-0.408 0.081,-0.412 0.07,-0.421C0.06,-0.43 0.055,-0.44 0.055,-0.453C0.055,-0.465 0.065,-0.48 0.086,-0.497C0.131,-0.534 0.158,-0.588 0.168,-0.661L0.19,-0.664C0.193,-0.641 0.195,-0.62 0.196,-0.601L0.482,-0.601ZM0.656,-0.272L0.34,-0.272L0.34,-0.153L0.677,-0.153L0.697,-0.181C0.704,-0.191 0.712,-0.196 0.72,-0.196C0.727,-0.196 0.743,-0.186 0.767,-0.167C0.791,-0.147 0.803,-0.133 0.803,-0.126C0.803,-0.118 0.793,-0.109 0.774,-0.098L0.774,-0C0.774,0.033 0.774,0.056 0.775,0.069L0.776,0.105C0.776,0.11 0.773,0.115 0.767,0.119C0.76,0.124 0.748,0.129 0.729,0.136C0.71,0.143 0.697,0.146 0.69,0.146C0.685,0.146 0.683,0.141 0.683,0.131L0.683,0.063L0.34,0.063L0.34,0.12C0.34,0.125 0.339,0.129 0.337,0.131C0.334,0.134 0.328,0.138 0.318,0.144C0.308,0.15 0.295,0.156 0.279,0.161C0.263,0.166 0.254,0.169 0.251,0.169C0.248,0.169 0.246,0.166 0.246,0.161L0.249,0.099C0.25,0.075 0.251,0.037 0.251,-0.016L0.251,-0.377C0.251,-0.424 0.25,-0.472 0.248,-0.52C0.302,-0.501 0.34,-0.486 0.362,-0.473L0.646,-0.473L0.666,-0.5C0.673,-0.509 0.678,-0.513 0.683,-0.513C0.688,-0.513 0.7,-0.506 0.721,-0.492C0.742,-0.477 0.756,-0.467 0.763,-0.46C0.77,-0.453 0.774,-0.447 0.774,-0.442C0.774,-0.436 0.764,-0.428 0.745,-0.417L0.745,-0.354C0.745,-0.319 0.745,-0.296 0.746,-0.283L0.747,-0.249C0.747,-0.243 0.744,-0.238 0.737,-0.234C0.73,-0.231 0.717,-0.226 0.699,-0.221C0.68,-0.215 0.668,-0.212 0.661,-0.212C0.658,-0.212 0.656,-0.216 0.656,-0.224L0.656,-0.272ZM0.34,-0.301L0.656,-0.301L0.656,-0.445L0.34,-0.445L0.34,-0.301ZM0.34,0.033L0.683,0.033L0.683,-0.122L0.34,-0.122L0.34,0.033Z" style="fill:rgb(166,0,0);fill-rule:nonzero;"/>
        </g>
        <g transform="matrix(12,0,0,12,415.194,183.633)">
            <path d="M0.241,-0.675L0.78,-0.675L0.806,-0.721C0.81,-0.728 0.815,-0.731 0.82,-0.731C0.825,-0.731 0.844,-0.72 0.875,-0.698C0.907,-0.675 0.923,-0.66 0.923,-0.653C0.923,-0.646 0.91,-0.638 0.883,-0.631L0.883,0.026C0.883,0.061 0.879,0.086 0.873,0.101C0.866,0.116 0.848,0.131 0.82,0.145C0.791,0.159 0.773,0.166 0.764,0.166C0.759,0.166 0.756,0.161 0.753,0.151C0.745,0.122 0.733,0.101 0.717,0.09C0.701,0.079 0.666,0.066 0.612,0.051L0.615,0.029C0.685,0.041 0.73,0.047 0.75,0.047C0.77,0.047 0.782,0.043 0.787,0.036C0.792,0.029 0.794,0.015 0.794,-0.005L0.794,-0.646L0.234,-0.646L0.234,0.115C0.234,0.12 0.233,0.123 0.232,0.125C0.231,0.127 0.224,0.131 0.213,0.138C0.201,0.145 0.188,0.15 0.173,0.155C0.159,0.16 0.15,0.163 0.147,0.163C0.144,0.163 0.142,0.16 0.143,0.154C0.147,0.121 0.149,0.078 0.149,0.026L0.149,-0.647C0.149,-0.68 0.148,-0.71 0.147,-0.736C0.174,-0.725 0.205,-0.705 0.241,-0.675ZM0.386,-0.396C0.403,-0.455 0.419,-0.52 0.434,-0.59C0.463,-0.577 0.485,-0.566 0.501,-0.556C0.517,-0.546 0.527,-0.54 0.53,-0.537C0.533,-0.534 0.534,-0.53 0.534,-0.527C0.534,-0.521 0.53,-0.517 0.521,-0.514C0.512,-0.511 0.505,-0.506 0.5,-0.498C0.496,-0.489 0.486,-0.468 0.473,-0.433C0.46,-0.398 0.446,-0.365 0.432,-0.335C0.482,-0.264 0.507,-0.204 0.507,-0.155C0.507,-0.136 0.501,-0.119 0.489,-0.102C0.476,-0.085 0.466,-0.077 0.459,-0.077C0.447,-0.077 0.439,-0.089 0.436,-0.113C0.429,-0.169 0.416,-0.219 0.398,-0.263C0.351,-0.169 0.303,-0.095 0.255,-0.041L0.241,-0.061C0.292,-0.138 0.334,-0.228 0.367,-0.331C0.345,-0.374 0.307,-0.435 0.253,-0.514L0.267,-0.525C0.312,-0.481 0.351,-0.438 0.386,-0.396ZM0.626,-0.394C0.644,-0.455 0.659,-0.517 0.67,-0.58C0.74,-0.543 0.775,-0.518 0.775,-0.506C0.775,-0.501 0.771,-0.498 0.761,-0.495C0.752,-0.492 0.745,-0.486 0.738,-0.477C0.731,-0.469 0.722,-0.45 0.711,-0.42C0.7,-0.39 0.687,-0.36 0.673,-0.329C0.733,-0.238 0.763,-0.17 0.763,-0.125C0.763,-0.109 0.758,-0.094 0.748,-0.08C0.738,-0.065 0.729,-0.058 0.72,-0.058C0.711,-0.058 0.703,-0.069 0.697,-0.09C0.682,-0.143 0.663,-0.2 0.64,-0.259C0.594,-0.168 0.538,-0.087 0.471,-0.016L0.459,-0.03C0.517,-0.115 0.566,-0.217 0.607,-0.336C0.586,-0.381 0.558,-0.433 0.523,-0.49L0.541,-0.497C0.572,-0.461 0.6,-0.427 0.626,-0.394Z" style="fill:rgb(166,0,0);fill-rule:nonzero;"/>
        </g>
    </g>
</svg>
